<svg width="30" height="30" viewBox="0 0 30 30" fill="none" xmlns="http://www.w3.org/2000/svg">
<path d="M28.125 5.625V24.375H1.875V5.625H28.125ZM30 3.75H0V26.25H30V3.75Z" fill="#FCFCFC"/>
<path d="M16.875 9.375H26.25V11.25H16.875V9.375ZM16.875 13.125H26.25V15H16.875V13.125ZM16.875 16.875H20.625V18.75H16.875V16.875ZM12.1875 9.375C11.0625 9.375 10.125 10.5 9.375 11.25C8.625 10.5 7.6875 9.375 6.5625 9.375C3.75 9.375 2.625 12.9375 4.6875 14.8125L9.375 18.75L14.0625 14.8125C16.125 12.9375 15 9.375 12.1875 9.375Z" fill="#FCFCFC"/>
</svg>
