<svg width="30" height="30" viewBox="0 0 30 30" fill="none" xmlns="http://www.w3.org/2000/svg">
<path fill-rule="evenodd" clip-rule="evenodd" d="M14.9996 3.75C15.1653 3.75 15.3243 3.81585 15.4415 3.93306C15.5587 4.05027 15.6246 4.20924 15.6246 4.375V4.4175C17.3733 4.6 18.7077 5.35187 19.5765 6.30875C20.174 6.96687 20.5696 7.75125 20.694 8.51625L20.7615 8.56812C21.464 9.1125 21.9796 9.7725 21.8571 10.5294C21.739 11.2606 21.0783 11.7056 20.4633 11.9775C20.3079 12.0463 20.1494 12.108 19.9883 12.1625C19.9958 12.2737 19.9996 12.3862 19.9996 12.5C19.9993 13.1706 19.8641 13.8343 19.602 14.4516C19.3399 15.0689 18.9563 15.6272 18.4741 16.0932C17.9918 16.5593 17.4208 16.9235 16.7948 17.1643C16.1689 17.4051 15.501 17.5175 14.8307 17.4949C14.1605 17.4722 13.5016 17.315 12.8934 17.0325C12.2852 16.75 11.74 16.348 11.2903 15.8505C10.8406 15.353 10.4956 14.7701 10.2758 14.1365C10.056 13.5029 9.96587 12.8316 10.0108 12.1625C9.84978 12.108 9.69129 12.0463 9.53583 11.9775C8.92083 11.7056 8.26021 11.2606 8.14208 10.5294C8.01958 9.7725 8.53521 9.1125 9.23771 8.56812L9.31708 8.50688C9.33309 8.40736 9.35311 8.30853 9.37708 8.21063C9.54189 7.56067 9.84244 6.95297 10.259 6.4275C11.0965 5.36 12.4671 4.4975 14.3746 4.3875V4.375C14.3746 4.20924 14.4404 4.05027 14.5576 3.93306C14.6748 3.81585 14.8338 3.75 14.9996 3.75ZM19.7871 10.275C19.915 10.3213 20.0544 10.3246 20.1844 10.2845C20.3143 10.2443 20.4276 10.1629 20.5071 10.0525C20.6302 10.2244 20.6258 10.3156 20.6233 10.33C20.6152 10.38 20.5196 10.5863 19.9577 10.835C19.3021 11.125 18.3158 11.335 17.1846 11.4538C17.1577 10.8923 16.9158 10.3628 16.509 9.97497C16.1021 9.58715 15.5616 9.3708 14.9996 9.3708C14.4375 9.3708 13.897 9.58715 13.4902 9.97497C13.0834 10.3628 12.8414 10.8923 12.8146 11.4538C11.6833 11.335 10.6971 11.125 10.0415 10.835C9.47958 10.5863 9.38396 10.38 9.37583 10.33C9.37333 10.3156 9.36896 10.225 9.49208 10.0525C9.58031 10.1755 9.71018 10.2623 9.85756 10.2968C10.0049 10.3312 10.1598 10.3111 10.2935 10.24C10.4271 10.1689 10.5304 10.0517 10.5842 9.91021C10.6379 9.76872 10.6385 9.61252 10.5858 9.47062C10.5108 9.26813 10.4877 8.9325 10.5915 8.50625C10.7142 8.02968 10.9362 7.58437 11.2427 7.19938L11.2496 7.19063V8.4375C11.2496 8.60326 11.3154 8.76223 11.4326 8.87944C11.5498 8.99665 11.7088 9.0625 11.8746 9.0625C12.0403 9.0625 12.1993 8.99665 12.3165 8.87944C12.4337 8.76223 12.4996 8.60326 12.4996 8.4375V6.15375C13.0133 5.88187 13.6352 5.69187 14.3746 5.63937V7.1875C14.3746 7.35326 14.4404 7.51223 14.5576 7.62944C14.6748 7.74665 14.8338 7.8125 14.9996 7.8125C15.1653 7.8125 15.3243 7.74665 15.4415 7.62944C15.5587 7.51223 15.6246 7.35326 15.6246 7.1875V5.67563C16.3558 5.7675 16.9796 5.97687 17.4996 6.25687V8.4375C17.4996 8.60326 17.5654 8.76223 17.6826 8.87944C17.7998 8.99665 17.9588 9.0625 18.1246 9.0625C18.2903 9.0625 18.4493 8.99665 18.5665 8.87944C18.6837 8.76223 18.7496 8.60326 18.7496 8.4375V7.26188C19.4471 8.09125 19.5946 8.96875 19.4121 9.475C19.3558 9.63082 19.3637 9.80261 19.434 9.95262C19.5043 10.1026 19.6313 10.2186 19.7871 10.275ZM13.4165 13.0719C12.6932 13.026 11.9735 12.9352 11.2615 12.8C11.3364 13.74 11.7628 14.6172 12.4555 15.2569C13.1483 15.8966 14.0566 16.2518 14.9996 16.2518C15.9425 16.2518 16.8509 15.8966 17.5436 15.2569C18.2364 14.6172 18.6627 13.74 18.7377 12.8C18.0752 12.93 17.3415 13.02 16.5827 13.0719C16.3784 13.2861 16.1328 13.4567 15.8607 13.5733C15.5886 13.6899 15.2956 13.75 14.9996 13.75C14.7035 13.75 14.4106 13.6899 14.1385 13.5733C13.8664 13.4567 13.6207 13.2861 13.4165 13.0719ZM15.9371 11.5625C15.9371 11.8111 15.8383 12.0496 15.6625 12.2254C15.4867 12.4012 15.2482 12.5 14.9996 12.5C14.7509 12.5 14.5125 12.4012 14.3367 12.2254C14.1609 12.0496 14.0621 11.8111 14.0621 11.5625C14.0621 11.3139 14.1609 11.0754 14.3367 10.8996C14.5125 10.7238 14.7509 10.625 14.9996 10.625C15.2482 10.625 15.4867 10.7238 15.6625 10.8996C15.8383 11.0754 15.9371 11.3139 15.9371 11.5625Z" fill="#FCFCFC"/>
<path d="M15 24.375C15.3315 24.375 15.6495 24.2433 15.8839 24.0089C16.1183 23.7745 16.25 23.4565 16.25 23.125C16.25 22.7935 16.1183 22.4755 15.8839 22.2411C15.6495 22.0067 15.3315 21.875 15 21.875C14.6685 21.875 14.3505 22.0067 14.1161 22.2411C13.8817 22.4755 13.75 22.7935 13.75 23.125C13.75 23.4565 13.8817 23.7745 14.1161 24.0089C14.3505 24.2433 14.6685 24.375 15 24.375Z" fill="#FCFCFC"/>
<path fill-rule="evenodd" clip-rule="evenodd" d="M12.2087 17.75L14.375 19.375H15.625L17.7913 17.75C21.6006 18.36 26.25 20.0563 26.25 22.5V26.25H3.75V22.5C3.75 20.0563 8.39938 18.36 12.2087 17.75ZM16.0419 20.625L18.1106 19.0731C18.7375 19.1881 19.3756 19.3325 20 19.5019V25H21.25V19.8844C21.6875 20.0344 22.1069 20.1975 22.5 20.3731V25H7.5V20.3731C7.89313 20.1981 8.3125 20.0344 8.75 19.8844V25H10V19.5019C10.6244 19.3325 11.2625 19.1881 11.8894 19.0731L13.9581 20.625H16.0419ZM24.5656 21.6812C24.9181 22.0462 25 22.3156 25 22.5V25H23.75V21.035C24.0875 21.2512 24.36 21.4688 24.5656 21.6819M5.43437 21.6819C5.64062 21.4694 5.91313 21.2519 6.25 21.0356V25H5V22.5C5 22.3156 5.08125 22.0462 5.43437 21.6812" fill="#FCFCFC"/>
</svg>
