<svg width="30" height="30" viewBox="0 0 30 30" fill="none" xmlns="http://www.w3.org/2000/svg">
<path d="M15 12.5C16.1603 12.5 17.2731 12.0391 18.0936 11.2186C18.9141 10.3981 19.375 9.28532 19.375 8.125C19.375 6.96468 18.9141 5.85188 18.0936 5.03141C17.2731 4.21094 16.1603 3.75 15 3.75C13.8397 3.75 12.7269 4.21094 11.9064 5.03141C11.0859 5.85188 10.625 6.96468 10.625 8.125C10.625 9.28532 11.0859 10.3981 11.9064 11.2186C12.7269 12.0391 13.8397 12.5 15 12.5ZM15 6.25C15.4973 6.25 15.9742 6.44754 16.3258 6.79917C16.6775 7.15081 16.875 7.62772 16.875 8.125C16.875 8.62228 16.6775 9.09919 16.3258 9.45083C15.9742 9.80246 15.4973 10 15 10C14.5027 10 14.0258 9.80246 13.6742 9.45083C13.3225 9.09919 13.125 8.62228 13.125 8.125C13.125 7.62772 13.3225 7.15081 13.6742 6.79917C14.0258 6.44754 14.5027 6.25 15 6.25ZM18.75 25C18.75 24.6685 18.6183 24.3505 18.3839 24.1161C18.1495 23.8817 17.8315 23.75 17.5 23.75H16.25V21.25H23.75V19.375C23.75 16.9625 19.8375 15 15 15C10.1625 15 6.25 16.9625 6.25 19.375V21.25H13.75V23.75H12.5C12.1685 23.75 11.8505 23.8817 11.6161 24.1161C11.3817 24.3505 11.25 24.6685 11.25 25H2.5V27.5H11.25C11.25 27.8315 11.3817 28.1495 11.6161 28.3839C11.8505 28.6183 12.1685 28.75 12.5 28.75H17.5C17.8315 28.75 18.1495 28.6183 18.3839 28.3839C18.6183 28.1495 18.75 27.8315 18.75 27.5H27.5V25H18.75ZM9.5125 18.75C10.4875 18.1625 12.3625 17.5 15 17.5C17.6375 17.5 19.5125 18.1625 20.4875 18.75H9.5125Z" fill="#FCFCFC"/>
</svg>
