<svg width="30" height="30" viewBox="0 0 30 30" fill="none" xmlns="http://www.w3.org/2000/svg">
<path d="M15 12.5V21.25M11.875 10.625L8.125 14.375M18.125 10.625L21.875 14.375M12.1175 4.52499C13.52 3.16624 14.2213 2.48749 15.08 2.49999C15.9375 2.51249 16.6175 3.21499 17.975 4.61749C19.3338 6.01999 20.0125 6.72124 20 7.57999C19.9863 8.43749 19.285 9.11624 17.8825 10.475C16.48 11.8337 15.7787 12.5125 14.92 12.5C14.0625 12.4862 13.3825 11.785 12.025 10.3825C10.6662 8.97999 9.9875 8.27874 10 7.41999C10.0137 6.56249 10.715 5.88249 12.1175 4.52499ZM8.75 16.875C8.75 17.7038 8.42076 18.4986 7.83471 19.0847C7.24866 19.6707 6.4538 20 5.625 20C4.7962 20 4.00134 19.6707 3.41529 19.0847C2.82924 18.4986 2.5 17.7038 2.5 16.875C2.5 16.0462 2.82924 15.2513 3.41529 14.6653C4.00134 14.0792 4.7962 13.75 5.625 13.75C6.4538 13.75 7.24866 14.0792 7.83471 14.6653C8.42076 15.2513 8.75 16.0462 8.75 16.875ZM27.5 16.875C27.5 16.0462 27.1708 15.2513 26.5847 14.6653C25.9987 14.0792 25.2038 13.75 24.375 13.75C23.5462 13.75 22.7513 14.0792 22.1653 14.6653C21.5792 15.2513 21.25 16.0462 21.25 16.875C21.25 17.7038 21.5792 18.4986 22.1653 19.0847C22.7513 19.6707 23.5462 20 24.375 20C25.2038 20 25.9987 19.6707 26.5847 19.0847C27.1708 18.4986 27.5 17.7038 27.5 16.875ZM11.875 24.25C11.875 22.8362 11.875 22.1287 12.3137 21.6887C12.7537 21.25 13.4625 21.25 14.875 21.25H15.125C16.5388 21.25 17.2463 21.25 17.6863 21.6887C18.125 22.1287 18.125 22.8362 18.125 24.25V24.5C18.125 25.9137 18.125 26.6212 17.6863 27.06C17.2463 27.5 16.5375 27.5 15.125 27.5H14.875C13.4612 27.5 12.7537 27.5 12.3137 27.06C11.875 26.6212 11.875 25.9137 11.875 24.5V24.25Z" stroke="#FCFCFC" stroke-width="1.875" stroke-linecap="round" stroke-linejoin="round"/>
</svg>
