<svg width="28" height="28" viewBox="0 0 28 28" fill="none" xmlns="http://www.w3.org/2000/svg">
<path d="M24.0778 0.110718H3.83201C1.8484 0.110718 0.234375 1.72517 0.234375 3.70922V23.9524C0.234375 25.9369 1.8484 27.5517 3.83201 27.5517H24.0778C26.0614 27.5517 27.6754 25.9373 27.6754 23.9524V3.70922C27.6754 1.72517 26.0618 0.110718 24.0778 0.110718ZM21.3804 5.92371C21.5666 5.9236 21.7509 5.96021 21.9229 6.03145C22.0949 6.1027 22.2512 6.20717 22.3827 6.33889C22.5143 6.47062 22.6186 6.627 22.6896 6.79908C22.7607 6.97117 22.7971 7.15558 22.7967 7.34174C22.797 7.52784 22.7606 7.71216 22.6895 7.88414C22.6184 8.05613 22.5141 8.2124 22.3825 8.34401C22.251 8.47562 22.0947 8.57997 21.9228 8.6511C21.7508 8.72222 21.5665 8.75871 21.3804 8.75849C21.0045 8.75849 20.644 8.60915 20.3782 8.34334C20.1123 8.07753 19.963 7.71701 19.963 7.3411C19.963 6.96518 20.1123 6.60467 20.3782 6.33885C20.644 6.07304 21.0045 5.92371 21.3804 5.92371ZM22.1407 9.31114C22.139 9.47095 22.1252 10.3531 21.9343 10.6198C21.7237 10.9114 21.38 10.867 21.38 10.867C21.38 10.867 20.9923 10.8804 20.8389 10.6422C20.6873 10.4091 20.6137 9.9465 20.6188 9.31114H22.1407ZM4.44928 3.0773H14.0249V9.69839L13.4658 9.1397V3.63728H5.00581V14.3479H13.4658V10.9807L14.0249 11.5398V14.9088H4.44928V3.0773ZM11.2121 13.1065C11.2421 13.2181 11.2273 13.337 11.1707 13.4378C11.1141 13.5385 11.0203 13.6131 10.9094 13.6456C10.7985 13.678 10.6793 13.6657 10.5773 13.6113C10.4754 13.5569 10.3988 13.4648 10.3639 13.3546L9.33616 9.82761H8.97217L7.94397 13.3546C7.9109 13.467 7.83459 13.5617 7.73179 13.6179C7.62899 13.6741 7.50809 13.6872 7.39562 13.6544C7.33992 13.6382 7.28796 13.6111 7.24274 13.5748C7.19751 13.5385 7.15989 13.4935 7.13204 13.4427C7.10419 13.3918 7.08666 13.3359 7.08044 13.2782C7.07422 13.2205 7.07945 13.1622 7.09582 13.1065L8.13651 9.5347V7.24396L7.87289 7.24483L7.87117 7.24396L7.28018 9.25687C7.25591 9.33869 7.20024 9.40758 7.12535 9.4485C7.05045 9.48942 6.96241 9.49904 6.88044 9.47526C6.83984 9.46339 6.80198 9.44363 6.76903 9.41709C6.73609 9.39056 6.7087 9.35779 6.68845 9.32065C6.6682 9.28351 6.65548 9.24274 6.65103 9.20067C6.64657 9.15861 6.65046 9.11608 6.66248 9.07552L7.2819 6.97044C7.52829 6.15201 8.22008 6.17656 8.22008 6.17656H10.0882C10.0882 6.17656 10.7792 6.15201 11.0256 6.97044L11.6458 9.07552C11.6674 9.1567 11.6563 9.24308 11.6151 9.31624C11.5739 9.38941 11.5057 9.44358 11.4251 9.46723C11.3445 9.49087 11.2579 9.48211 11.1836 9.44282C11.1094 9.40353 11.0535 9.3368 11.0277 9.25687L10.4359 7.24396L10.4341 7.24483L10.1705 7.24396V9.53599L11.2116 13.1061L11.2121 13.1065ZM8.3997 5.18411C8.3997 4.768 8.73784 4.42943 9.15395 4.42943C9.34969 4.43605 9.5352 4.51846 9.67133 4.65926C9.80746 4.80007 9.88355 4.98826 9.88355 5.18411C9.88355 5.37996 9.80746 5.56815 9.67133 5.70896C9.5352 5.84976 9.34969 5.93217 9.15395 5.93879C8.95391 5.93856 8.76213 5.85896 8.62072 5.71747C8.4793 5.57598 8.39982 5.38415 8.3997 5.18411ZM15.4602 18.1303C15.4602 18.9169 14.8175 19.5544 14.0249 19.5544C13.2314 19.5544 12.5888 18.9165 12.5888 18.1303C12.5888 17.3442 13.2314 16.7059 14.0249 16.7059C14.8179 16.7059 15.4602 17.3438 15.4602 18.1303ZM8.08784 18.1428C8.08784 18.5193 7.9383 18.8803 7.67213 19.1465C7.40595 19.4126 7.04494 19.5622 6.66851 19.5622C6.29208 19.5622 5.93107 19.4126 5.6649 19.1465C5.39872 18.8803 5.24918 18.5193 5.24918 18.1428C5.24918 17.7664 5.39872 17.4054 5.6649 17.1392C5.93107 16.873 6.29208 16.7235 6.66851 16.7235C7.04494 16.7235 7.40595 16.873 7.67213 17.1392C7.9383 17.4054 8.08784 17.7664 8.08784 18.1428ZM9.49898 24.7109H3.80875V21.9291C3.80875 20.9259 4.63278 20.1109 5.63729 20.1109H7.59807C8.60216 20.1109 9.49941 20.9264 9.49941 21.9291L9.49898 24.7109ZM10.5664 24.7109L11.6967 21.6324C12.1494 20.0597 13.4675 20.1079 13.4675 20.1079H14.5862C14.5862 20.1079 15.9034 20.0597 16.357 21.6324L17.4873 24.7109H10.5668H10.5664ZM17.6337 13.0828H15.6682C15.5897 13.083 15.512 13.0676 15.4395 13.0377C15.3669 13.0078 15.301 12.9638 15.2455 12.9083C15.19 12.8529 15.146 12.787 15.116 12.7145C15.086 12.642 15.0706 12.5642 15.0708 12.4858C15.0708 12.3759 15.1517 12.2023 15.2039 12.1166L12.8046 9.71734C12.782 9.69475 12.7641 9.66792 12.7519 9.6384C12.7397 9.60887 12.7335 9.57723 12.7336 9.54529C12.7337 9.51335 12.74 9.48174 12.7524 9.45228C12.7647 9.42281 12.7827 9.39608 12.8054 9.3736C12.8279 9.35087 12.8546 9.33283 12.8841 9.32051C12.9135 9.3082 12.9451 9.30186 12.9771 9.30186C13.009 9.30186 13.0406 9.3082 13.0701 9.32051C13.0996 9.33283 13.1263 9.35087 13.1487 9.3736L15.6699 11.8952L17.455 11.8961L18.6318 10.1205C18.7979 9.87157 19.0228 9.66748 19.2867 9.52636C19.5506 9.38524 19.8453 9.31146 20.1446 9.31157H20.2346C20.2337 9.49076 20.248 10.5857 20.6184 10.9721C20.8962 11.2504 21.19 11.2263 21.19 11.2263V12.6826C21.0843 12.7263 20.9971 12.8054 20.9433 12.9062C20.8894 13.0071 20.8722 13.1235 20.8946 13.2356C20.917 13.3477 20.9777 13.4486 21.0662 13.521C21.1547 13.5933 21.2656 13.6327 21.38 13.6324C21.494 13.632 21.6043 13.5922 21.6923 13.5198C21.7803 13.4473 21.8406 13.3466 21.8628 13.2348C21.8851 13.123 21.868 13.007 21.8145 12.9063C21.7609 12.8057 21.6742 12.7267 21.5691 12.6826V11.2327C21.5691 11.2327 21.9059 11.2629 22.1919 10.9157C22.4659 10.5754 22.5284 9.79875 22.5262 9.33096C23.4471 9.33096 24.2259 10.2278 24.2259 11.225V15.0358H19.2766V11.3197C19.1448 11.5174 18.6981 12.1787 18.2755 12.8063C18.1506 12.9941 17.8573 13.0841 17.6342 13.0841L17.6337 13.0828ZM22.8062 18.0214C22.806 18.3978 22.6564 18.7589 22.3903 19.0252C22.1242 19.2915 21.7633 19.4414 21.3869 19.442C21.0101 19.442 20.6489 19.2923 20.3825 19.026C20.1161 18.7596 19.9665 18.3983 19.9665 18.0216C19.9665 17.6449 20.1161 17.2836 20.3825 17.0172C20.6489 16.7508 21.0101 16.6012 21.3869 16.6012C21.5733 16.6012 21.7579 16.638 21.9301 16.7094C22.1024 16.7808 22.2589 16.8854 22.3907 17.0173C22.5225 17.1492 22.627 17.3057 22.6983 17.478C22.7696 17.6503 22.8062 17.8349 22.8062 18.0214ZM24.2445 24.7109H18.556V21.9291C18.556 20.9259 19.4515 20.1109 20.4573 20.1109H22.4155C23.4204 20.1109 24.2445 20.9259 24.2445 21.9291V24.7109Z" fill="#FCFCFC"/>
</svg>
