<svg width="30" height="30" viewBox="0 0 30 30" fill="none" xmlns="http://www.w3.org/2000/svg">
<path d="M13.5716 10.7143H20.7144M9.28585 10.7143H10.7144M13.5716 15H20.7144M9.28585 15H10.7144M13.5716 19.2857H20.7144M9.28585 19.2857H10.7144M23.5716 22.1429V7.85714C23.5716 7.09938 23.2705 6.37266 22.7347 5.83684C22.1989 5.30102 21.4722 5 20.7144 5H9.28585C8.52809 5 7.80137 5.30102 7.26555 5.83684C6.72973 6.37266 6.42871 7.09938 6.42871 7.85714V22.1429C6.42871 22.9006 6.72973 23.6273 7.26555 24.1632C7.80137 24.699 8.52809 25 9.28585 25H20.7144C21.4722 25 22.1989 24.699 22.7347 24.1632C23.2705 23.6273 23.5716 22.9006 23.5716 22.1429Z" stroke="#FCFCFC" stroke-width="1.42857" stroke-linecap="round" stroke-linejoin="round"/>
</svg>
