<svg width="30" height="30" viewBox="0 0 30 30" fill="none" xmlns="http://www.w3.org/2000/svg">
<path fill-rule="evenodd" clip-rule="evenodd" d="M10.625 4.375C10.625 3.87772 10.8225 3.40081 11.1742 3.04917C11.5258 2.69754 12.0027 2.5 12.5 2.5H17.5C17.9973 2.5 18.4742 2.69754 18.8258 3.04917C19.1775 3.40081 19.375 3.87772 19.375 4.375H21.25C21.7473 4.375 22.2242 4.57254 22.5758 4.92417C22.9275 5.27581 23.125 5.75272 23.125 6.25V15.625H21.875V6.25C21.875 6.08424 21.8092 5.92527 21.6919 5.80806C21.5747 5.69085 21.4158 5.625 21.25 5.625H19.375C19.375 6.12228 19.1775 6.59919 18.8258 6.95083C18.4742 7.30246 17.9973 7.5 17.5 7.5H12.5C12.0027 7.5 11.5258 7.30246 11.1742 6.95083C10.8225 6.59919 10.625 6.12228 10.625 5.625H8.75C8.58424 5.625 8.42527 5.69085 8.30806 5.80806C8.19085 5.92527 8.125 6.08424 8.125 6.25V23.75C8.125 23.9158 8.19085 24.0747 8.30806 24.1919C8.42527 24.3092 8.58424 24.375 8.75 24.375H16.25V25.625H8.75C8.25272 25.625 7.77581 25.4275 7.42417 25.0758C7.07254 24.7242 6.875 24.2473 6.875 23.75V6.25C6.875 5.75272 7.07254 5.27581 7.42417 4.92417C7.77581 4.57254 8.25272 4.375 8.75 4.375H10.625ZM12.5 3.75C12.3342 3.75 12.1753 3.81585 12.0581 3.93306C11.9408 4.05027 11.875 4.20924 11.875 4.375V5.625C11.875 5.79076 11.9408 5.94973 12.0581 6.06694C12.1753 6.18415 12.3342 6.25 12.5 6.25H17.5C17.6658 6.25 17.8247 6.18415 17.9419 6.06694C18.0592 5.94973 18.125 5.79076 18.125 5.625V4.375C18.125 4.20924 18.0592 4.05027 17.9419 3.93306C17.8247 3.81585 17.6658 3.75 17.5 3.75H12.5ZM14.375 10V11.875H12.5V13.125H14.375V15H15.625V13.125H17.5V11.875H15.625V10H14.375ZM17.5 16.875C17.3342 16.875 17.1753 16.9408 17.0581 17.0581C16.9408 17.1753 16.875 17.3342 16.875 17.5V21.7431C16.875 22.4633 17.0529 23.1724 17.3927 23.8074C17.7325 24.4424 18.2239 24.9836 18.8231 25.3831L20.9031 26.7706C21.0058 26.8391 21.1265 26.8757 21.25 26.8757C21.3735 26.8757 21.4942 26.8391 21.5969 26.7706L23.6769 25.3831C24.276 24.9837 24.7673 24.4425 25.1072 23.8076C25.447 23.1728 25.6249 22.4639 25.625 21.7438V17.5C25.625 17.3342 25.5592 17.1753 25.4419 17.0581C25.3247 16.9408 25.1658 16.875 25 16.875H17.5ZM23.5669 20.4419L21.0669 22.9419C20.9497 23.059 20.7907 23.1249 20.625 23.1249C20.4593 23.1249 20.3003 23.059 20.1831 22.9419L18.9331 21.6919L19.8169 20.8081L20.625 21.6162L22.6831 19.5581L23.5669 20.4419Z" fill="#FCFCFC"/>
</svg>
