<svg width="30" height="30" viewBox="0 0 30 30" fill="none" xmlns="http://www.w3.org/2000/svg">
<path d="M23.1923 20.3119V29.82H11.2396V26.3906H9.48371C7.04527 26.3906 5.06715 24.4135 5.06715 21.9717V18.841H3.56527C3.32552 18.8407 3.09562 18.7456 2.92583 18.5763C2.75604 18.407 2.66017 18.1774 2.65918 17.9377C2.65918 17.812 2.68168 17.693 2.72668 17.5866L5.06715 11.693C5.06715 11.693 5.30902 9.25173 5.52934 8.31705C6.50387 4.11189 11.1914 0.296265 16.2745 0.296265C22.4582 0.296265 27.4734 5.31189 27.4734 11.5013C27.4734 15.0755 25.799 18.2611 23.1923 20.3119ZM7.81871 11.4258C7.48825 11.4267 7.17161 11.5585 6.93816 11.7924C6.70471 12.0263 6.57349 12.3432 6.57324 12.6736C6.57249 13.0048 6.70323 13.3228 6.93675 13.5578C7.17027 13.7927 7.48747 13.9253 7.81871 13.9266C7.98338 13.9267 8.14645 13.8944 8.29863 13.8315C8.45081 13.7686 8.58911 13.6763 8.70563 13.56C8.82215 13.4436 8.91462 13.3055 8.97775 13.1534C9.04088 13.0013 9.07343 12.8383 9.07355 12.6736C9.07219 12.3419 8.93932 12.0242 8.70409 11.7903C8.46885 11.5564 8.15045 11.4253 7.81871 11.4258ZM18.6698 8.70705C18.6698 9.01984 18.7941 9.31981 19.0152 9.54099C19.2364 9.76217 19.5364 9.88642 19.8492 9.88642C20.162 9.88642 20.4619 9.76217 20.6831 9.54099C20.9043 9.31981 21.0286 9.01984 21.0286 8.70705C21.0286 8.39426 20.9043 8.09428 20.6831 7.8731C20.4619 7.65193 20.162 7.52767 19.8492 7.52767C19.5364 7.52767 19.2364 7.65193 19.0152 7.8731C18.7941 8.09428 18.6698 8.39426 18.6698 8.70705ZM9.75559 7.42642C9.75552 7.58178 9.78611 7.73563 9.84559 7.87915C9.90507 8.02268 9.99229 8.15305 10.1022 8.26282C10.2122 8.37259 10.3427 8.4596 10.4863 8.51885C10.6299 8.57811 10.7838 8.60845 10.9392 8.60814C11.253 8.60814 11.5539 8.48349 11.7758 8.26161C11.9977 8.03973 12.1223 7.7388 12.1223 7.42501C12.1223 7.11123 11.9977 6.8103 11.7758 6.58842C11.5539 6.36654 11.253 6.24189 10.9392 6.24189C10.7837 6.24189 10.6297 6.27254 10.486 6.33208C10.3424 6.39161 10.2118 6.47888 10.1019 6.58889C9.992 6.69889 9.90484 6.82948 9.84541 6.97319C9.78599 7.1169 9.75546 7.27091 9.75559 7.42642ZM23.7553 10.02L25.4695 9.72517V8.07517L23.8181 7.79064C23.7396 7.4927 23.628 7.2045 23.4853 6.93142L24.4861 5.51017L23.325 4.34486L21.9529 5.31142C21.7458 5.1892 21.5286 5.08491 21.3037 4.9997C21.2395 4.97626 21.1753 4.95892 21.1111 4.93923L20.812 3.22595H19.1625L18.884 4.87595C18.5842 4.95364 18.2943 5.06563 18.0201 5.2097L16.6007 4.20658L15.4303 5.37423L16.4025 6.74064C16.2786 6.94906 16.1738 7.16823 16.0893 7.39548C16.0645 7.4597 16.0486 7.52392 16.0279 7.58814L14.6118 7.83095V7.04439L13.5304 6.85876C13.4804 6.67121 13.4093 6.4899 13.3186 6.3183L13.9814 5.38173L13.2154 4.6172L12.3136 5.2533C12.1809 5.1742 12.042 5.10615 11.8982 5.04986C11.8603 5.0358 11.8209 5.03251 11.782 5.02033L11.5861 3.89205H10.5093L10.3209 4.97486C10.1311 5.02501 9.95059 5.09908 9.77715 5.18955L8.83871 4.52908L8.07652 5.29361L8.71402 6.19548C8.63422 6.32718 8.56659 6.46588 8.51199 6.60986C8.49746 6.64876 8.48855 6.6872 8.47637 6.72751L7.35418 6.92017V8.00251L8.44309 8.18908C8.49246 8.37564 8.56121 8.55501 8.64934 8.7272L7.98699 9.6647L8.75012 10.4302L9.65527 9.79267C9.78699 9.87002 9.9234 9.94173 10.0715 9.99705C10.1095 10.0116 10.1489 10.0144 10.1868 10.0275L10.3828 11.1558L11.459 11.1549L11.6479 10.0735C11.8358 10.0223 12.0175 9.9508 12.1898 9.86017L13.1245 10.5192L13.8904 9.75517L13.2539 8.8533C13.3303 8.72251 13.4011 8.58798 13.455 8.44126C13.4704 8.40236 13.4732 8.36158 13.4868 8.32173L14.3175 8.1783V9.53251L15.9661 9.81611C16.0439 10.117 16.1573 10.4058 16.3007 10.68L15.3 12.0961L16.4634 13.2628L17.8345 12.2963C18.0393 12.4158 18.2536 12.5217 18.4842 12.6066C18.5484 12.631 18.6126 12.6474 18.6768 12.668L18.9759 14.3822H20.4075L20.2893 15.0689C20.0826 15.1158 19.8876 15.1974 19.7039 15.3005L19.0195 14.8167L18.4828 15.3539L18.9459 16.0097C18.8662 16.1363 18.7968 16.2708 18.7439 16.4161C18.7228 16.4742 18.7143 16.5324 18.6979 16.5905L17.8673 16.7325V17.4895L18.6623 17.6274C18.7082 17.8355 18.7898 18.03 18.8939 18.2152L18.4101 18.8986L18.945 19.4372L19.6007 18.9722C19.7273 19.0528 19.8628 19.1222 20.0086 19.1761C20.0667 19.1977 20.1257 19.2056 20.1853 19.222L20.3217 20.0485H21.0815L21.2203 19.2567C21.4284 19.2108 21.6234 19.1292 21.8081 19.0252L22.4887 19.5085L23.0273 18.9708L22.5642 18.3188C22.6457 18.1913 22.7161 18.0553 22.7704 17.9086C22.7906 17.8514 22.799 17.7933 22.8154 17.7352L23.639 17.5931V16.8333L22.8482 16.6978C22.8009 16.4919 22.7228 16.2942 22.6167 16.1114L23.099 15.4266L22.5614 14.8899L21.9065 15.3502C21.7786 15.2682 21.6424 15.2 21.5001 15.1467C21.4443 15.1266 21.3871 15.1181 21.33 15.1031L21.1851 14.2767H20.6423L20.9043 12.7308C21.2033 12.6537 21.4922 12.5422 21.7654 12.3985L23.1867 13.4016L24.3515 12.2363L23.3831 10.8652C23.5036 10.6599 23.6104 10.4447 23.6962 10.2141C23.7201 10.1494 23.7365 10.0852 23.7571 10.021L23.7553 10.02ZM19.5717 17.2125C19.5721 17.5264 19.697 17.8273 19.9191 18.049C20.1413 18.2708 20.4423 18.3953 20.7562 18.3952C20.9112 18.3949 21.0646 18.364 21.2076 18.3044C21.3507 18.2448 21.4806 18.1576 21.59 18.0478C21.6993 17.938 21.786 17.8077 21.8449 17.6643C21.9039 17.521 21.9341 17.3675 21.9337 17.2125C21.934 17.0576 21.9038 16.9041 21.8448 16.7609C21.7858 16.6177 21.6991 16.4875 21.5898 16.3777C21.4804 16.268 21.3505 16.1809 21.2075 16.1213C21.0645 16.0618 20.9111 16.031 20.7562 16.0308C20.4425 16.0305 20.1415 16.1549 19.9193 16.3765C19.6972 16.5981 19.5722 16.8988 19.5717 17.2125Z" fill="#FCFCFC"/>
</svg>
