<svg width="30" height="30" viewBox="0 0 30 30" fill="none" xmlns="http://www.w3.org/2000/svg">
<path d="M14.0625 12.8125V10.625H15.3125V12.8125H17.5V14.0625H15.3125V16.25H14.0625V14.0625H11.875V12.8125H14.0625Z" fill="#F8F7F7"/>
<path fill-rule="evenodd" clip-rule="evenodd" d="M4.41047 19.6725C4.38671 19.5751 4.37475 19.4752 4.37485 19.375V7.5C4.37485 7.16848 4.50654 6.85054 4.74096 6.61612C4.97538 6.3817 5.29333 6.25 5.62485 6.25H24.3748C24.7064 6.25 25.0243 6.3817 25.2587 6.61612C25.4932 6.85054 25.6248 7.16848 25.6248 7.5V19.375C25.6248 19.5275 25.5973 19.6731 25.548 19.8081L27.4923 22.7831C27.554 22.8774 27.5889 22.9866 27.5936 23.0991C27.5983 23.2117 27.5724 23.3234 27.5188 23.4224C27.4652 23.5215 27.3859 23.6042 27.2891 23.6619C27.1924 23.7195 27.0819 23.75 26.9692 23.75H2.99985C2.88842 23.75 2.77903 23.7202 2.68299 23.6636C2.58696 23.6071 2.50779 23.526 2.45367 23.4286C2.39955 23.3312 2.37245 23.2211 2.37519 23.1097C2.37792 22.9983 2.41039 22.8896 2.46922 22.795L4.41047 19.6725ZM5.62485 7.5H24.3748V19.375H5.62485V7.5Z" fill="#F8F7F7"/>
</svg>
