<svg width="20" height="20" viewBox="0 0 20 20" fill="none" xmlns="http://www.w3.org/2000/svg">
<path d="M6.66667 8.33333C6.55616 8.33333 6.45018 8.37723 6.37204 8.45537C6.2939 8.53351 6.25 8.63949 6.25 8.75C6.25 8.86051 6.2939 8.96649 6.37204 9.04463C6.45018 9.12277 6.55616 9.16667 6.66667 9.16667H9.58333C9.69384 9.16667 9.79982 9.12277 9.87796 9.04463C9.9561 8.96649 10 8.86051 10 8.75C10 8.63949 9.9561 8.53351 9.87796 8.45537C9.79982 8.37723 9.69384 8.33333 9.58333 8.33333H6.66667ZM6.25 6.66667C6.25 6.55616 6.2939 6.45018 6.37204 6.37204C6.45018 6.2939 6.55616 6.25 6.66667 6.25H13.125C13.2355 6.25 13.3415 6.2939 13.4196 6.37204C13.4978 6.45018 13.5417 6.55616 13.5417 6.66667C13.5417 6.77717 13.4978 6.88315 13.4196 6.96129C13.3415 7.03944 13.2355 7.08333 13.125 7.08333H6.66667C6.55616 7.08333 6.45018 7.03944 6.37204 6.96129C6.2939 6.88315 6.25 6.77717 6.25 6.66667Z" fill="#6BC0FF"/>
<path fill-rule="evenodd" clip-rule="evenodd" d="M6.25 11.6666C6.25 11.5561 6.2939 11.4501 6.37204 11.372C6.45018 11.2939 6.55616 11.25 6.66667 11.25H8.33333C8.44384 11.25 8.54982 11.2939 8.62796 11.372C8.7061 11.4501 8.75 11.5561 8.75 11.6666V13.3333C8.75 13.4438 8.7061 13.5498 8.62796 13.6279C8.54982 13.7061 8.44384 13.75 8.33333 13.75H6.66667C6.55616 13.75 6.45018 13.7061 6.37204 13.6279C6.2939 13.5498 6.25 13.4438 6.25 13.3333V11.6666ZM7.08333 12.9166V12.0833H7.91667V12.9166H7.08333ZM11.6667 12.9166C11.9982 12.9166 12.3161 12.7849 12.5506 12.5505C12.785 12.3161 12.9167 11.9981 12.9167 11.6666C12.9167 11.3351 12.785 11.0172 12.5506 10.7827C12.3161 10.5483 11.9982 10.4166 11.6667 10.4166C11.3351 10.4166 11.0172 10.5483 10.7828 10.7827C10.5484 11.0172 10.4167 11.3351 10.4167 11.6666C10.4167 11.9981 10.5484 12.3161 10.7828 12.5505C11.0172 12.7849 11.3351 12.9166 11.6667 12.9166ZM11.6667 12.0833C11.7229 12.0859 11.7791 12.077 11.8318 12.0573C11.8845 12.0376 11.9327 12.0073 11.9734 11.9685C12.0141 11.9296 12.0465 11.8829 12.0687 11.8312C12.0909 11.7795 12.1023 11.7238 12.1024 11.6675C12.1024 11.6112 12.0911 11.5555 12.069 11.5037C12.0469 11.4519 12.0146 11.4051 11.974 11.3662C11.9333 11.3273 11.8852 11.297 11.8326 11.2771C11.7799 11.2573 11.7237 11.2483 11.6675 11.2508C11.5603 11.2555 11.4591 11.3013 11.3849 11.3788C11.3106 11.4563 11.2691 11.5594 11.269 11.6666C11.2689 11.7739 11.3102 11.8771 11.3843 11.9547C11.4583 12.0323 11.5595 12.0784 11.6667 12.0833ZM9.16667 14.6591C9.16667 13.7775 10.8321 13.3333 11.6667 13.3333C12.5013 13.3333 14.1667 13.7775 14.1667 14.6591V16.25H9.16667V14.6591ZM10.0229 14.6758L10 14.6995V15.4166H13.3333V14.7L13.3104 14.6754C13.2421 14.6087 13.1104 14.5204 12.9038 14.4325C12.4871 14.2554 11.9729 14.1666 11.6667 14.1666C11.3604 14.1666 10.8463 14.2554 10.4296 14.4325C10.2229 14.52 10.0913 14.6091 10.0229 14.6758Z" fill="#6BC0FF"/>
<path fill-rule="evenodd" clip-rule="evenodd" d="M7.08366 2.91663C7.08366 2.58511 7.21535 2.26716 7.44978 2.03274C7.6842 1.79832 8.00214 1.66663 8.33366 1.66663H11.667C11.9985 1.66663 12.3165 1.79832 12.5509 2.03274C12.7853 2.26716 12.917 2.58511 12.917 2.91663H14.5837C14.9152 2.91663 15.2331 3.04832 15.4675 3.28274C15.702 3.51716 15.8337 3.83511 15.8337 4.16663V17.0833C15.8337 17.4148 15.702 17.7328 15.4675 17.9672C15.2331 18.2016 14.9152 18.3333 14.5837 18.3333H5.41699C5.08547 18.3333 4.76753 18.2016 4.53311 17.9672C4.29869 17.7328 4.16699 17.4148 4.16699 17.0833V4.16663C4.16699 3.83511 4.29869 3.51716 4.53311 3.28274C4.76753 3.04832 5.08547 2.91663 5.41699 2.91663H7.08366ZM11.667 4.99996C11.9985 4.99996 12.3165 4.86826 12.5509 4.63384C12.7853 4.39942 12.917 4.08148 12.917 3.74996H14.5837C14.6942 3.74996 14.8001 3.79386 14.8783 3.872C14.9564 3.95014 15.0003 4.05612 15.0003 4.16663V17.0833C15.0003 17.1938 14.9564 17.2998 14.8783 17.3779C14.8001 17.4561 14.6942 17.5 14.5837 17.5H5.41699C5.30649 17.5 5.2005 17.4561 5.12236 17.3779C5.04422 17.2998 5.00033 17.1938 5.00033 17.0833V4.16663C5.00033 4.05612 5.04422 3.95014 5.12236 3.872C5.2005 3.79386 5.30649 3.74996 5.41699 3.74996H7.08366C7.08366 4.08148 7.21535 4.39942 7.44978 4.63384C7.6842 4.86826 8.00214 4.99996 8.33366 4.99996H11.667ZM8.33366 2.49996C8.22315 2.49996 8.11717 2.54386 8.03903 2.622C7.96089 2.70014 7.91699 2.80612 7.91699 2.91663V3.74996C7.91699 3.86047 7.96089 3.96645 8.03903 4.04459C8.11717 4.12273 8.22315 4.16663 8.33366 4.16663H11.667C11.7775 4.16663 11.8835 4.12273 11.9616 4.04459C12.0398 3.96645 12.0837 3.86047 12.0837 3.74996V2.91663C12.0837 2.80612 12.0398 2.70014 11.9616 2.622C11.8835 2.54386 11.7775 2.49996 11.667 2.49996H8.33366Z" fill="#6BC0FF"/>
</svg>
