<svg width="48" height="49" viewBox="0 0 48 49" fill="none" xmlns="http://www.w3.org/2000/svg">
<path d="M1.02636 23.896C1.02524 27.9601 2.08714 31.9284 4.10635 35.4261L0.833252 47.3767L13.0632 44.1699C16.4459 46.0114 20.2359 46.9763 24.0873 46.9766H24.0974C36.8116 46.9766 47.1613 36.6306 47.1667 23.9142C47.1691 17.7521 44.7716 11.9578 40.4156 7.59839C36.0604 3.23939 30.268 0.837529 24.0964 0.834717C11.3807 0.834717 1.0318 11.1801 1.02655 23.896" fill="url(#paint0_linear_63_484)"/>
<path d="M0.202561 23.8884C0.201249 28.0988 1.30122 32.209 3.39241 35.8319L0.00195312 48.2109L12.6704 44.8893C16.161 46.7924 20.091 47.7958 24.0901 47.7973H24.1004C37.2708 47.7973 47.9922 37.0793 47.9978 23.9076C48.0001 17.5241 45.5163 11.5214 41.0047 7.0059C36.4925 2.49091 30.493 0.00262477 24.1004 0C10.9278 0 0.20781 10.7166 0.202561 23.8884ZM7.7471 35.208L7.27408 34.4571C5.28562 31.2954 4.23609 27.6417 4.23759 23.8899C4.24171 12.9418 13.1517 4.03465 24.1079 4.03465C29.4137 4.0369 34.4 6.10523 38.1504 9.8579C41.9007 13.611 43.9643 18.5999 43.963 23.9061C43.9581 34.8542 35.0479 43.7625 24.1004 43.7625H24.0925C20.5279 43.7606 17.0319 42.8033 13.983 40.9943L13.2574 40.564L5.73971 42.535L7.7471 35.208Z" fill="url(#paint1_linear_63_484)"/>
<path d="M18.1276 13.9016C17.6803 12.9073 17.2095 12.8873 16.7841 12.8698C16.4358 12.8549 16.0375 12.856 15.6397 12.856C15.2415 12.856 14.5945 13.0058 14.0476 13.6029C13.5001 14.2006 11.9575 15.645 11.9575 18.5827C11.9575 21.5204 14.0973 24.3596 14.3956 24.7584C14.6942 25.1564 18.5264 31.3779 24.5956 33.7713C29.6397 35.7603 30.6662 35.3647 31.7609 35.265C32.8558 35.1656 35.2938 33.821 35.7912 32.4267C36.289 31.0325 36.289 29.8375 36.1398 29.5878C35.9905 29.339 35.5923 29.1896 34.9952 28.8911C34.398 28.5926 31.4622 27.1479 30.9149 26.9486C30.3675 26.7495 29.9695 26.6501 29.5713 27.248C29.173 27.8449 28.0296 29.1896 27.681 29.5878C27.3329 29.9869 26.9844 30.0366 26.3874 29.738C25.7899 29.4384 23.8669 28.8086 21.5854 26.7746C19.8103 25.1919 18.6119 23.2373 18.2635 22.6394C17.9152 22.0425 18.2262 21.7189 18.5256 21.4214C18.7939 21.1538 19.123 20.7241 19.4218 20.3756C19.7195 20.0269 19.8189 19.7781 20.018 19.3799C20.2173 18.9813 20.1176 18.6325 19.9685 18.3339C19.8189 18.0352 18.6586 15.0822 18.1276 13.9016Z" fill="white"/>
<defs>
<linearGradient id="paint0_linear_63_484" x1="2317.51" y1="4655.03" x2="2317.51" y2="0.834717" gradientUnits="userSpaceOnUse">
<stop stop-color="#1FAF38"/>
<stop offset="1" stop-color="#60D669"/>
</linearGradient>
<linearGradient id="paint1_linear_63_484" x1="2399.8" y1="4821.09" x2="2399.8" y2="0" gradientUnits="userSpaceOnUse">
<stop stop-color="#F9F9F9"/>
<stop offset="1" stop-color="white"/>
</linearGradient>
</defs>
</svg>
