<svg width="16" height="16" viewBox="0 0 16 16" fill="none" xmlns="http://www.w3.org/2000/svg">
<path d="M9.34654 14.6153L4.26921 13.1353V14H1.60254V8.564H5.85121L10.7565 10.3593V11.436H13.9999V13.1793L9.34654 14.6153ZM2.26854 13.3333H3.60187V9.23067H2.26854V13.3333ZM9.31187 13.908L13.3172 12.6873V12.1027H8.70321L6.63321 11.428L6.85321 10.79L8.80387 11.436H10.0899V10.8227L5.74587 9.23067H4.26921V12.436L9.31187 13.908ZM9.90987 8.446L9.2432 8.21533V7.62533C9.23787 6.98089 9.00943 6.43356 8.55787 5.98333C8.10632 5.53311 7.55698 5.308 6.90987 5.308C6.33787 5.308 5.85432 5.47444 5.45921 5.80733C5.06409 6.14022 4.79876 6.55489 4.66321 7.05133H3.97454C4.10343 6.442 4.38743 5.91467 4.82654 5.46933C5.26521 5.024 5.84876 4.75289 6.57721 4.656V2.66667H5.57721V2H8.91054C9.17721 2 9.43432 2.03556 9.68187 2.10667C9.92987 2.17778 10.1585 2.276 10.3679 2.40133L9.87921 2.89C9.73254 2.818 9.5792 2.76289 9.4192 2.72467C9.26054 2.686 9.0912 2.66667 8.9112 2.66667H7.24454V4.65667C8.06232 4.76067 8.7112 5.10267 9.1912 5.68267C9.6712 6.26267 9.9112 6.91556 9.9112 7.64133L9.90987 8.446ZM12.3332 6.41067C12.0519 6.41067 11.815 6.31422 11.6225 6.12133C11.4301 5.92844 11.3336 5.69156 11.3332 5.41067C11.3332 5.19733 11.4085 4.93178 11.5592 4.614C11.7094 4.29622 11.9674 3.86933 12.3332 3.33333C12.699 3.86933 12.9572 4.29422 13.1079 4.608C13.2585 4.92178 13.3336 5.18933 13.3332 5.41067C13.3332 5.69156 13.2368 5.92844 13.0439 6.12133C12.8514 6.31422 12.6145 6.41067 12.3332 6.41067Z" fill="#6BC0FF"/>
</svg>
