<svg width="20" height="20" viewBox="0 0 20 20" fill="none" xmlns="http://www.w3.org/2000/svg">
<path fill-rule="evenodd" clip-rule="evenodd" d="M7.08301 2.91663C7.08301 2.58511 7.2147 2.26716 7.44912 2.03274C7.68354 1.79832 8.00149 1.66663 8.33301 1.66663H11.6663C11.9979 1.66663 12.3158 1.79832 12.5502 2.03274C12.7846 2.26716 12.9163 2.58511 12.9163 2.91663H14.1663C14.4979 2.91663 14.8158 3.04832 15.0502 3.28274C15.2846 3.51716 15.4163 3.83511 15.4163 4.16663V10.4166H14.583V4.16663C14.583 4.05612 14.5391 3.95014 14.461 3.872C14.3828 3.79386 14.2768 3.74996 14.1663 3.74996H12.9163C12.9163 4.08148 12.7846 4.39942 12.5502 4.63384C12.3158 4.86826 11.9979 4.99996 11.6663 4.99996H8.33301C8.00149 4.99996 7.68354 4.86826 7.44912 4.63384C7.2147 4.39942 7.08301 4.08148 7.08301 3.74996H5.83301C5.7225 3.74996 5.61652 3.79386 5.53838 3.872C5.46024 3.95014 5.41634 4.05612 5.41634 4.16663V15.8333C5.41634 15.9438 5.46024 16.0498 5.53838 16.1279C5.61652 16.2061 5.7225 16.25 5.83301 16.25H10.833V17.0833H5.83301C5.50149 17.0833 5.18354 16.9516 4.94912 16.7172C4.7147 16.4828 4.58301 16.1648 4.58301 15.8333V4.16663C4.58301 3.83511 4.7147 3.51716 4.94912 3.28274C5.18354 3.04832 5.50149 2.91663 5.83301 2.91663H7.08301ZM8.33301 2.49996C8.2225 2.49996 8.11652 2.54386 8.03838 2.622C7.96024 2.70014 7.91634 2.80612 7.91634 2.91663V3.74996C7.91634 3.86047 7.96024 3.96645 8.03838 4.04459C8.11652 4.12273 8.2225 4.16663 8.33301 4.16663H11.6663C11.7768 4.16663 11.8828 4.12273 11.961 4.04459C12.0391 3.96645 12.083 3.86047 12.083 3.74996V2.91663C12.083 2.80612 12.0391 2.70014 11.961 2.622C11.8828 2.54386 11.7768 2.49996 11.6663 2.49996H8.33301ZM9.58301 6.66663V7.91663H8.33301V8.74996H9.58301V9.99996H10.4163V8.74996H11.6663V7.91663H10.4163V6.66663H9.58301ZM11.6663 11.25C11.5558 11.25 11.4499 11.2939 11.3717 11.372C11.2936 11.4501 11.2497 11.5561 11.2497 11.6666V14.4954C11.2497 14.9755 11.3682 15.4482 11.5948 15.8715C11.8214 16.2949 12.1489 16.6557 12.5484 16.922L13.9351 17.847C14.0036 17.8927 14.084 17.9171 14.1663 17.9171C14.2487 17.9171 14.3291 17.8927 14.3976 17.847L15.7843 16.922C16.1837 16.6557 16.5112 16.295 16.7378 15.8717C16.9643 15.4485 17.0829 14.9759 17.083 14.4958V11.6666C17.083 11.5561 17.0391 11.4501 16.961 11.372C16.8828 11.2939 16.7768 11.25 16.6663 11.25H11.6663ZM15.7109 13.6279L14.0443 15.2945C13.9661 15.3727 13.8602 15.4165 13.7497 15.4165C13.6392 15.4165 13.5332 15.3727 13.4551 15.2945L12.6218 14.4612L13.2109 13.872L13.7497 14.4108L15.1218 13.0387L15.7109 13.6279Z" fill="#6BC0FF"/>
</svg>
