<svg width="20" height="20" viewBox="0 0 20 20" fill="none" xmlns="http://www.w3.org/2000/svg">
<path d="M10.2398 5.45829H12.3811M10.2394 8.57913H12.3811M10.2394 7.53913H12.3811M10.2394 6.49871H12.3811M7.89606 5.16913V5.46871C7.89606 5.72663 8.10356 5.94538 8.36189 5.94538H8.76064C8.82165 5.94521 8.8821 5.95707 8.93853 5.98026C8.99495 6.00346 9.04626 6.03754 9.08952 6.08056C9.13277 6.12359 9.16713 6.17471 9.19063 6.23102C9.21413 6.28732 9.22631 6.3477 9.22647 6.40871V7.09579M6.81897 5.21538V5.46871C6.81897 5.72663 6.61064 5.94538 6.35314 5.94538H5.95397C5.89296 5.94521 5.83252 5.95707 5.77609 5.98026C5.71966 6.00346 5.66835 6.03754 5.6251 6.08056C5.58184 6.12359 5.54748 6.17471 5.52398 6.23102C5.50048 6.28732 5.4883 6.3477 5.48814 6.40871V7.09579M14.4686 7.65538H16.2077C16.9819 7.65538 17.8148 8.30746 17.6052 9.05204L15.5815 16.2437M13.3652 3.22329H14.4686V9.80413M4.50439 8.34788V2.29163H13.3656V9.80413M10.2394 3.26913H12.3811V4.37913H10.2394V3.26913ZM8.19106 4.31829C8.19106 4.94371 7.80897 5.45079 7.33772 5.45079C6.86689 5.45079 6.48481 4.94329 6.48481 4.31829C6.48481 3.69329 6.86647 3.18621 7.33772 3.18579C7.80856 3.18579 8.19106 3.69288 8.19106 4.31829ZM7.83356 10.9012V12.5345H6.19939V14.7741H7.83356V16.4075H10.0731V14.7741H11.7065V12.5345H10.0731V10.9012H7.83356ZM6.60189 8.34746H3.29397C3.17195 8.34713 3.05106 8.37084 2.93821 8.41723C2.82535 8.46362 2.72273 8.53179 2.63622 8.61784C2.54971 8.70389 2.48099 8.80613 2.43399 8.91874C2.38699 9.03134 2.36264 9.15211 2.36231 9.27413V16.7766C2.36198 16.8986 2.38569 17.0195 2.43208 17.1324C2.47847 17.2453 2.54664 17.3479 2.63269 17.4344C2.71873 17.5209 2.82098 17.5896 2.93359 17.6366C3.04619 17.6836 3.16695 17.708 3.28897 17.7083H14.6494C14.7714 17.7086 14.8923 17.6849 15.0052 17.6385C15.118 17.5921 15.2206 17.524 15.3071 17.4379C15.3937 17.3519 15.4624 17.2496 15.5094 17.137C15.5564 17.0244 15.5807 16.9036 15.5811 16.7816V10.7354C15.5816 10.489 15.4843 10.2525 15.3105 10.0779C15.1368 9.90326 14.9007 9.80479 14.6544 9.80413H7.88064L6.60189 8.34746Z" stroke="#6BC0FF" stroke-width="0.5" stroke-linecap="round" stroke-linejoin="round"/>
</svg>
