<svg width="36" height="37" viewBox="0 0 36 37" fill="none" xmlns="http://www.w3.org/2000/svg">
<path d="M0.769831 17.9219C0.768988 20.97 1.56542 23.9462 3.07982 26.5695L0.625 35.5324L9.79746 33.1274C12.3345 34.5085 15.177 35.2321 18.0655 35.2324H18.0731C27.6088 35.2324 35.371 27.4729 35.3751 17.9356C35.3769 13.314 33.5788 8.96826 30.3118 5.69873C27.0453 2.42948 22.7011 0.628086 18.0724 0.625977C8.5356 0.625977 0.773909 8.385 0.769972 17.9219" fill="url(#paint0_linear_106_583)"/>
<path d="M0.152409 17.9163C0.151425 21.0741 0.976401 24.1567 2.5448 26.8739L0.00195312 36.1582L9.50331 33.6669C12.1212 35.0943 15.0688 35.8469 18.068 35.848H18.0758C27.9536 35.848 35.9946 27.8094 35.9989 17.9307C36.0006 13.1431 34.1377 8.64109 30.754 5.25442C27.3699 1.86818 22.8703 0.00196858 18.0758 0C8.19631 0 0.156346 8.03743 0.152409 17.9163ZM5.81081 26.406L5.45605 25.8428C3.96471 23.4715 3.17756 20.7313 3.17868 17.9175C3.18177 9.70637 9.86426 3.02599 18.0814 3.02599C22.0607 3.02768 25.8005 4.57892 28.6133 7.39343C31.426 10.2082 32.9737 13.9499 32.9727 17.9296C32.9691 26.1406 26.2864 32.8219 18.0758 32.8219H18.0699C15.3964 32.8205 12.7744 32.1025 10.4877 30.7457L9.94357 30.423L4.30527 31.9013L5.81081 26.406Z" fill="url(#paint1_linear_106_583)"/>
<path d="M13.5953 10.4261C13.2598 9.68039 12.9068 9.66534 12.5877 9.65227C12.3265 9.64102 12.0278 9.64186 11.7294 9.64186C11.4307 9.64186 10.9455 9.75421 10.5353 10.2021C10.1247 10.6503 8.96777 11.7336 8.96777 13.9369C8.96777 16.1401 10.5726 18.2696 10.7963 18.5687C11.0203 18.8672 13.8944 23.5333 18.4463 25.3284C22.2294 26.8201 22.9993 26.5234 23.8203 26.4486C24.6415 26.3741 26.47 25.3656 26.843 24.3199C27.2164 23.2743 27.2164 22.378 27.1044 22.1907C26.9925 22.0041 26.6939 21.8921 26.246 21.6682C25.7982 21.4443 23.5963 20.3608 23.1858 20.2113C22.7753 20.062 22.4767 19.9875 22.1781 20.4359C21.8794 20.8836 21.0218 21.8921 20.7604 22.1907C20.4993 22.4901 20.2379 22.5273 19.7902 22.3033C19.3421 22.0786 17.8998 21.6063 16.1887 20.0808C14.8573 18.8938 13.9585 17.4279 13.6973 16.9795C13.436 16.5318 13.6693 16.2891 13.8939 16.0659C14.0951 15.8652 14.3419 15.543 14.566 15.2816C14.7893 15.02 14.8638 14.8334 15.0131 14.5348C15.1626 14.2358 15.0878 13.9743 14.976 13.7503C14.8638 13.5263 13.9936 11.3115 13.5953 10.4261Z" fill="white"/>
<defs>
<linearGradient id="paint0_linear_106_583" x1="1738.13" y1="3491.27" x2="1738.13" y2="0.625977" gradientUnits="userSpaceOnUse">
<stop stop-color="#1FAF38"/>
<stop offset="1" stop-color="#60D669"/>
</linearGradient>
<linearGradient id="paint1_linear_106_583" x1="1799.85" y1="3615.82" x2="1799.85" y2="0" gradientUnits="userSpaceOnUse">
<stop stop-color="#F9F9F9"/>
<stop offset="1" stop-color="white"/>
</linearGradient>
</defs>
</svg>
