<svg width="26" height="24" viewBox="0 0 26 24" fill="none" xmlns="http://www.w3.org/2000/svg">
<path d="M19.9909 4.91005C19.0287 3.98416 17.8827 3.25002 16.6197 2.75042C15.3568 2.25081 14.0021 1.99574 12.6347 2.00005C6.90507 2.00005 2.23532 6.45005 2.23532 11.9101C2.23532 13.6601 2.71803 15.3601 3.6205 16.8601L2.15137 22.0001L7.66063 20.6201C9.18223 21.4101 10.8927 21.8301 12.6347 21.8301C18.3643 21.8301 23.0341 17.3801 23.0341 11.9201C23.0341 9.27005 21.9532 6.78005 19.9909 4.91005ZM12.6347 20.1501C11.0816 20.1501 9.56001 19.7501 8.22729 19.0001L7.91248 18.8201L4.6384 19.6401L5.50939 16.6001L5.29952 16.2901C4.43645 14.9771 3.97826 13.4593 3.97729 11.9101C3.97729 7.37005 7.86001 3.67005 12.6242 3.67005C14.9328 3.67005 17.1051 4.53005 18.7316 6.09005C19.5371 6.85392 20.1755 7.7626 20.6096 8.76338C21.0437 9.76417 21.265 10.8371 21.2606 11.9201C21.2816 16.4601 17.3989 20.1501 12.6347 20.1501ZM17.3779 13.9901C17.1156 13.8701 15.8353 13.2701 15.6045 13.1801C15.3631 13.1001 15.1952 13.0601 15.0168 13.3001C14.8384 13.5501 14.3452 14.1101 14.1983 14.2701C14.0514 14.4401 13.894 14.4601 13.6316 14.3301C13.3693 14.2101 12.5298 13.9401 11.5433 13.1001C10.7668 12.4401 10.2526 11.6301 10.0952 11.3801C9.94828 11.1301 10.0742 11.0001 10.2106 10.8701C10.3261 10.7601 10.473 10.5801 10.5989 10.4401C10.7248 10.3001 10.7773 10.1901 10.8612 10.0301C10.9452 9.86005 10.9032 9.72005 10.8403 9.60005C10.7773 9.48005 10.2526 8.26005 10.0427 7.76005C9.83285 7.28005 9.61248 7.34005 9.45507 7.33005H8.95137C8.77297 7.33005 8.50013 7.39005 8.25877 7.64005C8.02791 7.89005 7.35631 8.49005 7.35631 9.71005C7.35631 10.9301 8.29026 12.1101 8.41618 12.2701C8.54211 12.4401 10.2526 14.9401 12.8551 16.0101C13.4742 16.2701 13.9569 16.4201 14.3347 16.5301C14.9538 16.7201 15.5205 16.6901 15.9717 16.6301C16.4754 16.5601 17.5143 16.0301 17.7242 15.4501C17.9446 14.8701 17.9446 14.3801 17.8711 14.2701C17.7977 14.1601 17.6403 14.1101 17.3779 13.9901Z" fill="#FCFCFC"/>
</svg>
