<svg version="1.1" id="Capa_1" xmlns="http://www.w3.org/2000/svg" xmlns:xlink="http://www.w3.org/1999/xlink" x="0px" y="0px"
	 viewBox="0 0 233.2 106.6" style="enable-background:new 0 0 233.2 106.6;" xml:space="preserve">
<style type="text/css">
	.st0{fill-rule:evenodd;clip-rule:evenodd;fill:#80B432;}
	.st1{fill-rule:evenodd;clip-rule:evenodd;fill:#8A8D8F;}
	.st2{fill:#8A8D8F;}
	.st3{fill:#80B432;}
</style>
<g>
	<path class="st0" d="M188,6.8c2.2,5.8,6.3,7.5,12,5.6C197.8,6.8,193.9,4.7,188,6.8"/>
	<path class="st0" d="M165.9,16.8c-6,1.9-7.9,5.9-6.4,11.8C165.2,26.7,167.6,22.8,165.9,16.8"/>
	<path class="st0" d="M146.4,2.8c2.1,5.5,6,7.1,11.4,5.3C155.7,2.8,152,0.8,146.4,2.8"/>
	<path class="st0" d="M191.5,45.5c-4.2,3.7-4.3,7.7-0.9,11.8C194.5,53.6,195,49.7,191.5,45.5"/>
	<path class="st0" d="M141.1,31.5c-2.8-4.3-6.4-4.9-10.6-2.4C133.3,33.2,136.8,34.2,141.1,31.5"/>
	<path class="st0" d="M226,39.8c-2.9-1.8-5.2-1.2-7.1,1.5C221.8,43,224.2,42.6,226,39.8"/>
	<path class="st0" d="M226.5,25.7c2.6-2.2,2.8-4.6,0.9-7.2C224.9,20.7,224.5,23.1,226.5,25.7"/>
	<path class="st0" d="M153.1,46.3c-5.2-0.6-8,1.8-8.8,6.8C149.3,53.6,152.4,51.4,153.1,46.3"/>
	<path class="st0" d="M209.4,21.4c-7.1,0.7-10.2,4.7-9.9,11.6C206.3,32.1,209.8,28.4,209.4,21.4"/>
	<path class="st0" d="M135.4,19.3c-0.4,6.2,2.7,9.4,8.6,10.1C144.2,23.3,141.5,19.8,135.4,19.3"/>
	<path class="st0" d="M176.6,24.2c-0.8,5.1,1.5,7.9,6.3,8.9C183.6,28.2,181.6,25.1,176.6,24.2"/>
	<path class="st0" d="M164.3,50.5c1.8-2.3,1.5-4.4-0.6-6.2C162,46.5,162.1,48.6,164.3,50.5"/>
	<path class="st0" d="M203.2,4.1c-3.7,5.9-2.5,10.8,3.1,14.7C209.8,12.9,209,7.9,203.2,4.1"/>
	<path class="st0" d="M168.6,3.9c-8.5,0.8-12.2,5.6-11.8,13.8C165,16.7,169.2,12.3,168.6,3.9"/>
	<path class="st0" d="M151.7,41.8c-6.2-4.2-11.4-3-15.7,2.8C142.2,48.5,147.4,47.8,151.7,41.8"/>
	<path class="st0" d="M221.2,43.5c-8.6-0.6-13.1,3.5-14.2,11.7C215.4,55.7,220.3,52,221.2,43.5"/>
	<path class="st0" d="M222.1,24.6c-3-2.6-5.7-2.3-8.4,0.4C216.6,27.5,219.4,27.5,222.1,24.6"/>
	<path class="st0" d="M179.1,12.9c-6,0.1-8.8,3.3-9,9C175.9,21.7,179.1,18.8,179.1,12.9"/>
	<path class="st0" d="M190.4,28.1c-1.3,6.3,1.3,10,7.3,11.6C198.8,33.6,196.5,29.6,190.4,28.1"/>
	<path class="st0" d="M167.1,42.2c0.3-3.8-1.6-5.8-5.2-6.3C161.7,39.6,163.3,41.8,167.1,42.2"/>
	<path class="st0" d="M163.2,62.8c-0.5-2.2-1.9-3-4-2.6C159.7,62.3,161,63.2,163.2,62.8"/>
	<path class="st0" d="M227.7,14.7c-6.9-3.8-12.3-2-16.3,4.4C218.3,22.7,223.8,21.5,227.7,14.7"/>
	<path class="st0" d="M151.7,19.9c-5.9,3.7-6.9,8.7-3.6,14.5C153.8,30.6,155.3,25.8,151.7,19.9"/>
	<path class="st0" d="M218.6,4.9c-6.2,0.6-8.9,4.1-8.6,10C215.9,14.2,219,11,218.6,4.9"/>
	<path class="st0" d="M194.5,61.8c-4.3-1.3-7.1,0.3-8.6,4.4C190.1,67.3,193,66,194.5,61.8"/>
	<path class="st0" d="M183.6,41.9c0.1-4.5-2.3-6.8-6.6-7C177,39.2,179.1,41.7,183.6,41.9"/>
	<path class="st0" d="M133.9,42.1c1.8-2.9,1.2-5.2-1.5-7.1C130.7,37.8,131.1,40.2,133.9,42.1"/>
	<path class="st0" d="M228.4,27.5c-8.5-0.7-13,3.3-14.1,11.4C222.5,39.5,227.4,35.9,228.4,27.5"/>
	<path class="st0" d="M184.6,9c-4.8,7-3.5,12.9,3,17.9C192.1,20,191.4,14,184.6,9"/>
	<path class="st0" d="M155.3,31.1c-3.4,5.5-2.1,10,3.1,13.5C161.5,39.1,160.7,34.6,155.3,31.1"/>
	<path class="st0" d="M203.3,38c-5.5,3.7-6.3,8.4-3,13.9C205.6,48.2,206.8,43.6,203.3,38"/>
	<path class="st0" d="M142,4.9c-4,5.8-3,10.7,2.4,14.8C148.2,14.1,147.7,9.1,142,4.9"/>
	<path class="st0" d="M196.7,14.4c-4.8,3.5-5.3,7.8-2.2,12.6C199.2,23.5,200.1,19.3,196.7,14.4"/>
	<path class="st0" d="M155.1,11.3c-4.9,0.4-7.1,3-7,7.8C152.9,18.6,155.3,16.2,155.1,11.3"/>
	<path class="st0" d="M143.7,32.3c-3.9,0.6-5.4,2.9-5,6.7C142.4,38.3,144.2,36.1,143.7,32.3"/>
	<path class="st0" d="M224.5,11.6c-0.6-2.7-2.3-3.7-5-3.3C220.2,11,221.8,12.1,224.5,11.6"/>
	<path class="st0" d="M175.9,11.1c-0.6-2.7-2.3-3.8-5-3.3C171.6,10.5,173.2,11.7,175.9,11.1"/>
	<path class="st0" d="M137.1,12.4c-3.3,0.8-4.5,2.9-4,6.1C136.4,17.7,137.8,15.7,137.1,12.4"/>
	<path class="st0" d="M170.7,66.5c0.3-4.5-1.8-6.9-6.1-7.5C164.3,63.4,166.2,66,170.7,66.5"/>
	<path class="st0" d="M213,28.3c-6,2.7-7.5,7.1-5.2,12.9C213.5,38.5,215.5,34.3,213,28.3"/>
	<path class="st0" d="M207.6,57.4c-5.4-3.4-9.8-2.3-13.4,2.7C199.5,63.3,204,62.6,207.6,57.4"/>
	<path class="st0" d="M173,24.6c-5,2.1-6.3,5.7-4.5,10.6C173.3,33,175,29.6,173,24.6"/>
	<path class="st0" d="M149.4,56.1c5.1,4.4,9.8,3.9,14.3-0.8C158.7,51.2,154,51.2,149.4,56.1"/>
	<path class="st1" d="M172,39c-5,8.4-3,15.2,4.9,20.4C181.5,51,180.3,44.2,172,39"/>
	<path class="st1" d="M190.6,100.6c-6.5-24.4-12.5-36.5-0.2-65.6c-6.5,8.3-9.5,17.1-12.5,29c-2.8-5.2-8.5-9.5-14.6-12.6
		c4.5,4.3,9.9,9.3,10.6,15.5c1,9.4,0,14.6-5.7,33.7H190.6z"/>
	<path class="st2" d="M137.8,99.8c-1,0.8-2.3,1.2-3.6,1.2c-2.7,0-5.4-1.8-5.4-5.1c0-2.8,2.3-5.1,5.1-5.1c4.7,0,6.3,5.9,2.8,5.9h-5.5
		c0,1.5,1.4,2.4,2.9,2.4c0.8,0,1.6-0.2,2.3-0.7L137.8,99.8z M135.5,94.6c0.8,0,0.9-0.6,0.4-1.1c-0.3-0.5-1.1-0.9-2.1-0.9
		c-1.6,0-2.7,1.1-2.7,2.1H135.5z"/>
	<path class="st2" d="M142.2,91.7c0.6-0.6,1.6-1,2.7-1c2.3,0,4.4,1.2,4.4,5c0.1,3.8-2.1,5.2-4.5,5.2c-1,0-1.8-0.3-2.5-0.8v4.5h-2.1
		V90.9h1.9V91.7z M142.4,98.3c0.7,0.5,1.4,0.7,2.2,0.7c1.8,0,2.6-1.5,2.6-3.3c0-1.9-0.7-3.1-2.6-3.1c-0.8,0-1.6,0.2-2.2,0.9V98.3z"
		/>
	<path class="st2" d="M151.8,97.8c0.7,0.6,1.6,1.1,2.2,1.1c0.7,0,1.2-0.4,1.3-0.9c0.1-0.8-0.5-1.2-1.6-1.6c-1.4-0.5-2.7-1.1-2.7-2.8
		c0-1.7,1.4-2.9,3-2.9c1.3,0,2,0.4,3,1.2l-1.3,1.3c-0.5-0.4-1-0.5-1.5-0.5c-0.6,0-1.1,0.2-1.2,0.7c-0.1,0.5,0.2,0.9,1.1,1.2
		c2.2,0.7,3.2,1.6,3.2,3.4c0,1.8-1.4,3-3.3,3c-1.7,0-2.9-1.1-3.5-1.8L151.8,97.8z"/>
	<path class="st3" d="M4.5,76.5h5.4c0.2,1.5,0.8,2.6,1.8,3.2c1,0.7,2.4,1.1,4.2,1.1c1.6,0,2.8-0.3,3.6-0.9c0.8-0.6,1.2-1.4,1.2-2.5
		c0-1.6-2.3-3-7-4l-0.2-0.1L13,73.2c-2.6-0.6-4.4-1.2-5.3-1.8c-1-0.6-1.8-1.4-2.2-2.5c-0.5-0.9-0.8-2.1-0.8-3.6c0-2.5,0.9-4.5,2.6-6
		c1.8-1.4,4.3-2.1,7.7-2.1c3.1,0,5.6,0.7,7.3,2.2c1.7,1.6,2.7,3.7,2.8,6.3h-3.1c-1.2,0-2-0.5-2.5-1.6c-0.3-0.5-0.6-1-1.1-1.3
		c-0.9-0.7-2.2-1-3.8-1c-1.5,0-2.7,0.3-3.3,0.8c-0.8,0.6-1.2,1.4-1.2,2.4c0,1.4,1.5,2.4,4.5,3.1c0.9,0.3,1.5,0.4,1.9,0.5
		c0.9,0.3,1.7,0.6,2.4,0.7c0.7,0.2,1.2,0.3,1.7,0.4c0.7,0.3,1.4,0.6,2.2,0.9c1,0.6,1.8,1.4,2.4,2.4c0.6,1.1,0.8,2.3,0.8,3.6
		c0,2.8-0.9,4.9-2.8,6.5c-1.9,1.4-4.5,2.2-7.9,2.2c-3.5,0-6.1-0.7-7.9-2.2C5.6,81.6,4.6,79.4,4.5,76.5"/>
	<path class="st3" d="M49.5,58.2h2.8c0.7,0,1.3,0.2,1.9,0.7c0.5,0.5,0.8,1.1,0.8,1.8v24h-5.4V58.2z"/>
	<path class="st3" d="M75.9,64.2v12.1c0,3.7-1,6.1-2.9,7.2c-1.9,1.1-4,1.7-6.3,1.7c-2.2-0.1-4.2-0.7-6.1-1.9c-1.8-1.1-2.7-3.5-2.7-7
		V64.2h5.4v13.1c0,1.2,0.4,2.1,1.1,2.7c0.7,0.6,1.5,0.8,2.5,0.8c0.9,0,1.8-0.3,2.5-0.8c0.7-0.6,1.1-1.5,1.1-2.7V66.8
		c0-0.7,0.2-1.3,0.7-1.9c0.5-0.5,1.1-0.8,1.9-0.8H75.9z"/>
	<path class="st3" d="M97.8,60.7c0-0.7-0.3-1.3-0.8-1.8c-0.5-0.5-1.1-0.8-1.9-0.8h-2.6v8.8c-0.6-1-1.4-1.8-2.5-2.4
		c-1-0.5-2.1-0.8-3.4-0.8c-2.4,0-4.4,1-6,3c-1.5,2-2.2,4.6-2.2,7.8c0,3.3,0.8,5.9,2.2,7.8c0.8,1,1.8,1.7,3.1,2.1
		c1.3,0.4,2.6,0.7,3.9,0.7c1.8,0,3.5-0.3,5.1-1v0.9h4.9v-8.6c0-0.2,0-0.4,0-0.6V60.7z M91.5,79c-0.8,1.1-1.9,1.6-3.2,1.6
		c-1.4,0-2.6-0.5-3.3-1.6c-0.8-1.1-1.2-2.7-1.2-4.7c0-1.9,0.4-3.3,1.2-4.3c0.8-1.1,1.8-1.6,3.2-1.6c1.4,0,2.5,0.5,3.3,1.5
		c0.8,1.1,1.2,2.6,1.2,4.4C92.6,76.4,92.2,78,91.5,79"/>
	<path class="st3" d="M46.3,69.5c0-1.9-0.7-3.3-2.2-4.3c-1.4-1-3.6-1.5-6.5-1.5c-2.6,0-4.6,0.6-6,1.8c-1.2,1-2,2.3-2.2,3.9h5.2
		c0.3-0.6,0.7-1,1.2-1.2c0.6-0.2,1.2-0.3,1.9-0.3c0.7,0,1.4,0.1,2.2,0.3c0.8,0.2,1.2,0.7,1.2,1.5c0,1-1.1,1.7-3.4,2
		c-0.5,0.1-0.9,0.1-1.2,0.2c-0.4,0.1-0.7,0.1-0.9,0.1c-2,0.3-3.6,0.9-4.8,1.9c-1.3,0.9-1.9,2.5-1.9,4.6c0,2.3,0.7,4,2.1,5
		c1.4,1,3,1.5,4.9,1.5c0.9,0,2-0.1,3.2-0.2c0.9-0.1,1.7-0.3,2.5-0.6v0.7h4.7v-8.4c0-0.1,0-0.1,0-0.2V69.5z M41.3,76.3
		c0,1.4-0.4,2.6-1.2,3.4c-0.8,0.8-2,1.2-3.4,1.2c-0.9,0-1.5-0.2-2-0.6c-0.5-0.5-0.7-1.1-0.7-1.9c0-0.6,0.2-1.1,0.5-1.7
		c0.4-0.4,1.1-0.7,2-1l1.8-0.4c1.3-0.3,2.3-0.6,3-1V76.3z"/>
	<path class="st2" d="M100.9,85V61.2c0-0.8,0.3-1.4,0.8-2c0.5-0.5,1.2-0.8,2-0.9h5.3l5.3,20.3l5.3-20.3h8.1V85h-5.1V63.5L117.1,85
		h-5.6L106,63.5V85H100.9z"/>
	<path class="st2" d="M131.6,64.4h2.8c0.7,0,1.3,0.3,1.9,0.8c0.5,0.5,0.8,1.1,0.8,1.9V85h-5.4V64.4z"/>
	<path class="st2" d="M157.3,75.1v-5.3c0-1.9-0.7-3.3-2.2-4.3c-1.4-1-3.6-1.5-6.5-1.5c-2.6,0-4.6,0.6-6,1.8c-1.2,1-2,2.3-2.2,3.9
		h5.2c0.3-0.6,0.7-1,1.2-1.2c0.6-0.2,1.2-0.3,1.9-0.3c0.7,0,1.4,0.1,2.2,0.4c0.8,0.2,1.2,0.7,1.2,1.5c0,1-1.1,1.7-3.4,2
		c-0.5,0.1-0.9,0.1-1.2,0.2c-0.4,0.1-0.7,0.1-0.9,0.1c-2,0.3-3.6,0.9-4.8,1.9c-1.3,0.9-1.9,2.5-1.9,4.6c0,2.3,0.7,4,2.1,5
		c1.4,1,3,1.5,4.9,1.5c0.9,0,2-0.1,3.2-0.2c0.9-0.1,1.7-0.3,2.5-0.6v0.7h4.7L157.3,75.1L157.3,75.1z M152.3,76.6
		c0,1.4-0.4,2.6-1.2,3.4c-0.8,0.8-2,1.2-3.4,1.2c-0.9,0-1.5-0.2-2-0.6c-0.5-0.5-0.7-1.1-0.7-1.9c0-0.6,0.2-1.1,0.5-1.7
		c0.4-0.4,1.1-0.7,2-1l1.8-0.4c1.3-0.3,2.3-0.6,3-1V76.6z"/>
	<path class="st2" d="M135.2,58.3c-0.4,0-0.8,0.1-1,0.3c-0.2,0.2-0.4,0.4-0.6,0.7l-1.9,3.5h0h2.3h1.9l4.9-4.5L135.2,58.3z"/>
	<path class="st2" d="M7.7,45.7h4.1c0.4,0,0.8-0.1,1.1-0.4c0.3-0.3,0.4-0.6,0.4-1.1v-1H7.7v-3.1h7.5v-2.5H6.3
		c-0.4,0-0.8,0.1-1.1,0.4c-0.3,0.3-0.4,0.6-0.4,1.1V52h2.9V45.7z"/>
	<path class="st2" d="M26.4,40.9h-1.5c-0.4,0-0.8,0.1-1,0.4c-0.3,0.3-0.4,0.6-0.4,1V48c0,0.7-0.2,1.2-0.6,1.5
		c-0.4,0.3-0.9,0.5-1.4,0.5c-0.5,0-0.9-0.1-1.3-0.5c-0.4-0.3-0.6-0.8-0.6-1.5v-7.1h-2.9v6.5c0,1.9,0.5,3.2,1.5,3.8
		c1,0.6,2.1,0.9,3.3,1c1.2,0,2.3-0.3,3.4-0.9c1-0.6,1.5-1.9,1.5-3.9V40.9z"/>
	<path class="st2" d="M32.7,43c0.5,0,1,0.2,1.4,0.5c0.4,0.3,0.6,0.8,0.6,1.5v5.7c0,0.4,0.1,0.8,0.4,1c0.3,0.3,0.6,0.4,1,0.4h1.5
		v-6.5c0-1.9-0.5-3.2-1.5-3.9c-1-0.6-2.2-1-3.4-1c-1.2,0.1-2.3,0.4-3.3,1c-1,0.6-1.5,1.9-1.5,3.8V52h2.9v-7.1c0-0.7,0.2-1.2,0.6-1.5
		C31.7,43.2,32.2,43,32.7,43"/>
	<path class="st2" d="M47.7,37.6h-1.4v4.7c-0.3-0.5-0.8-1-1.3-1.3c-0.5-0.3-1.1-0.4-1.8-0.4c-1.3,0-2.4,0.5-3.2,1.6
		c-0.8,1.1-1.2,2.5-1.2,4.2c0,1.8,0.4,3.2,1.2,4.2c0.4,0.5,1,0.9,1.7,1.1c0.7,0.2,1.4,0.4,2.1,0.4c1.1,0,2.2-0.3,3.2-0.8v0.7h2.2
		l0-13.1c0-0.4-0.1-0.7-0.4-1C48.4,37.8,48.1,37.6,47.7,37.6 M45.7,48.9c-0.4,0.6-1,0.9-1.8,0.9c-0.8,0-1.4-0.3-1.8-0.9
		c-0.4-0.6-0.6-1.4-0.6-2.5c0-1,0.2-1.8,0.6-2.3c0.4-0.6,1-0.9,1.7-0.9c0.7,0,1.3,0.3,1.8,0.8c0.4,0.6,0.6,1.4,0.6,2.4
		C46.3,47.5,46.1,48.3,45.7,48.9"/>
	<path class="st2" d="M55.2,45c-0.2,0-0.5,0.1-0.7,0.1c-0.2,0-0.4,0.1-0.5,0.1c-1.1,0.2-1.9,0.5-2.6,1c-0.7,0.5-1,1.3-1,2.5
		c0,1.2,0.4,2.1,1.1,2.7c0.7,0.5,1.6,0.8,2.6,0.8c0.5,0,1.1,0,1.7-0.1c0.6-0.1,1.1-0.2,1.7-0.5v0.5h2.2l0-8.4c0-1-0.4-1.8-1.2-2.3
		c-0.8-0.5-1.9-0.8-3.5-0.8c-1.4,0-2.5,0.3-3.2,1c-0.7,0.6-1.1,1.3-1.2,2.1h2.8c0.1-0.3,0.4-0.5,0.7-0.6c0.3-0.1,0.7-0.2,1-0.2
		c0.4,0,0.8,0.1,1.2,0.2c0.4,0.1,0.6,0.4,0.6,0.8C57,44.5,56.4,44.9,55.2,45 M57,46.4v1c0,0.8-0.2,1.4-0.7,1.8
		c-0.4,0.4-1.1,0.7-1.8,0.7c-0.5,0-0.8-0.1-1.1-0.3c-0.2-0.2-0.4-0.6-0.4-1c0-0.3,0.1-0.6,0.3-0.9c0.2-0.2,0.6-0.4,1.1-0.5l1-0.2
		C56.1,46.8,56.6,46.6,57,46.4"/>
	<path class="st2" d="M70.9,48.6h-2.1c-0.3,0-0.6,0.1-0.7,0.2c-0.2,0.1-0.3,0.3-0.3,0.3c-0.1,0.1-0.2,0.2-0.2,0.2
		c-0.1,0.1-0.1,0.1-0.2,0.1c-0.3,0.2-0.7,0.3-1.2,0.3c-0.7,0-1.3-0.2-1.6-0.7c-0.5-0.5-0.7-1.4-0.7-2.7c0-1.3,0.3-2.2,0.7-2.8
		c0.4-0.4,0.9-0.6,1.5-0.6c0.7,0,1.2,0.2,1.5,0.6c0.1,0.1,0.3,0.3,0.4,0.6h2.9c-0.2-0.8-0.6-1.5-1.1-2.1c-0.9-1-2.2-1.5-3.9-1.5
		c-1.6,0-2.8,0.5-3.7,1.5c-0.9,1-1.3,2.4-1.3,4.2c0,1.9,0.4,3.3,1.3,4.3c0.9,1,2.1,1.5,3.7,1.5c1.3,0,2.4-0.3,3.2-1
		C70.1,50.6,70.6,49.7,70.9,48.6"/>
	<path class="st2" d="M74.2,37.7h-1.5V40h2.9v-0.9c0-0.4-0.1-0.7-0.4-1C74.9,37.8,74.5,37.7,74.2,37.7"/>
	<path class="st2" d="M74.2,40.9h-1.5V52h2.9v-9.7c0-0.4-0.1-0.7-0.4-1C74.9,41.1,74.5,40.9,74.2,40.9"/>
	<path class="st2" d="M78.1,51c0.6,0.5,1.3,0.9,2.2,1.1c0.9,0.2,1.9,0.2,2.8-0.1c1-0.2,1.8-0.7,2.5-1.7c0.3-0.5,0.6-1,0.8-1.7
		c0.2-0.6,0.3-1.4,0.3-2.3c0-1.2-0.2-2.3-0.7-3.2c-0.5-1-1.3-1.8-2.3-2.2c-0.9-0.3-1.9-0.4-3.1-0.3c-1.1,0.2-2.1,0.6-2.8,1.5
		c-0.4,0.5-0.8,1.1-1,1.9c-0.2,0.7-0.3,1.5-0.3,2.2c0,0.9,0.1,1.8,0.4,2.6C77.1,49.8,77.5,50.5,78.1,51 M80.1,43.7
		c0.2-0.2,0.5-0.4,0.9-0.5c0.4-0.1,0.8-0.1,1.3,0c0.4,0.1,0.8,0.5,1.1,1c0.3,0.5,0.5,1.2,0.5,2.3c0,1.1-0.2,1.9-0.5,2.4
		c-0.3,0.5-0.7,0.8-1.1,0.9c-0.4,0.1-0.9,0.1-1.3,0c-0.4-0.2-0.7-0.3-0.9-0.6c-0.4-0.5-0.7-1.4-0.7-2.6
		C79.2,45.3,79.5,44.3,80.1,43.7"/>
	<path class="st2" d="M91,44.9c0-0.7,0.2-1.2,0.6-1.5c0.4-0.3,0.8-0.5,1.3-0.5c0.5,0,1,0.2,1.4,0.5c0.4,0.3,0.6,0.8,0.6,1.5v5.7
		c0,0.4,0.1,0.8,0.4,1c0.3,0.3,0.6,0.4,1,0.4h1.5v-6.5c0-1.9-0.5-3.2-1.5-3.9c-1-0.6-2.2-1-3.4-1c-1.2,0.1-2.3,0.4-3.3,1
		c-1,0.6-1.5,1.9-1.5,3.8V52H91V44.9z"/>
	<path class="st2" d="M82.6,37.7c-0.2,0-0.4,0.1-0.5,0.2c-0.1,0.1-0.2,0.2-0.3,0.3l-1,1.7h0H82H83l2.4-2.2L82.6,37.7z"/>
</g>
</svg>