<svg xmlns="http://www.w3.org/2000/svg" width="213" height="55" fill="none" viewBox="0 0 213 55">
    <g fill="#004D84" opacity=".2">
        <path d="M38.497 33.917c-1.834 1.393-3.819 2.073-6.008 2.073-4.262 0-6.049-3.027-4.447-7.13 1.605-4.103 5.565-6.93 10.102-6.93 1.84 0 3.254.49 4.238 1.485l.667-1.719c.67-1.713-.311-2.582-3.05-2.582-2.192 0-4.307.398-6.224 1.192l3.054-4.895c2.288-.442 4.256-.682 5.902-.682 5.278 0 6.854 2.077 5.029 6.73l-5.631 14.408h-4.305l.673-1.95zM35.5 31.682c2.267 0 3.99-1.106 4.701-2.895.733-1.879-.166-2.994-2.354-2.994-2.347 0-4.089 1.157-4.768 2.91-.741 1.87.149 2.98 2.421 2.98zM56.758 7.764l5.133-.317-11.134 28.417h-5.005l11.006-28.1zM70.784 35.864H66.17l1.172-2.976c-2.356 2.107-4.639 3.14-6.95 3.14-3.868 0-5.088-2.588-3.165-7.483l5.186-13.25 5.133-.326-4.724 12.067c-1.182 3.03-1.214 4.496.976 4.496 2.383 0 4.334-1.667 5.608-4.939l4.428-11.299 5.13-.325-8.18 20.895zM83.147 35.948c-2.739 0-4.585-.88-5.79-2.785-1.296-1.998-1.325-4.706-.124-7.768 1.182-3.023 3.333-5.732 6.206-7.76 2.763-1.95 5.257-2.748 8.153-2.748 2.505 0 4.128.843 5.048 2.59l3.8-9.711 5.137-.317-11.135 28.418h-4.573l1.153-2.942c-2.552 2.114-5.019 3.023-7.875 3.023zm2.418-4.576c3.214 0 6.59-2.436 7.959-5.931 1.359-3.46-.132-5.978-3.3-5.978-3.09 0-6.672 2.675-7.965 5.978-1.371 3.495-.023 5.93 3.306 5.93zM114.337 13.25h-7.348l3.231-5.174h18.114l-2.025 5.175h-6.611l-8.884 22.613h-5.363l8.886-22.613z" opacity=".2"/>
        <path d="M124.769 17.835c2.756-1.953 5.834-3.027 8.771-3.027 2.93 0 5.197 1.111 6.472 3.071 1.246 1.987 1.327 4.57.177 7.515-1.156 2.949-3.28 5.573-6.093 7.569-2.761 1.953-5.958 3.027-8.85 3.027-2.973 0-5.15-1.039-6.402-3.028-1.244-2.03-1.342-4.655-.207-7.568 1.155-2.943 3.267-5.528 6.132-7.559zm2.283 13.537c3.091 0 6.754-2.669 8.049-5.977 1.357-3.468-.138-5.932-3.384-5.932-3.129 0-6.626 2.433-7.992 5.931-1.346 3.428.124 5.978 3.327 5.978zM146.877 36.071c-5.357 0-6.509-2.75-4.196-8.641l3.018-7.723h-3.165l2.937-4.42h1.953l1.306-3.308 5.929-2.466-2.268 5.775h4.618l-1.73 4.42h-4.613l-3.037 7.761c-1.159 2.94-.878 4.017 2.059 4.017.433 0 1.095 0 1.973-.041l-3.029 4.542c-.722.038-1.318.084-1.755.084zM164.016 33.917c-1.836 1.393-3.819 2.073-6.015 2.073-4.259 0-6.042-3.027-4.441-7.128 1.602-4.103 5.566-6.932 10.105-6.932 1.838 0 3.25.49 4.232 1.485l.673-1.719c.67-1.713-.311-2.582-3.05-2.582-2.194 0-4.309.398-6.226 1.192l3.056-4.895c2.279-.442 4.254-.682 5.898-.682 5.271 0 6.85 2.077 5.026 6.73l-5.631 14.419-4.3-.014.673-1.947zm-2.999-2.235c2.268 0 3.998-1.106 4.696-2.895.733-1.879-.159-2.994-2.353-2.994-2.343 0-4.094 1.157-4.775 2.91-.731 1.87.162 2.98 2.432 2.98zM181.871 7.764l5.128-.317-11.126 28.428h-5.01l11.008-28.111zM181.555 29.51h3.338l-.205 1.153h-2.343l-.496 1.252h1.834l-.458 1.173h-1.836l-.607 1.557h2.635l-.901 1.215h-3.444l2.483-6.35zM185.832 29.51h1.738c1.278 0 1.761.854 1.254 2.137-.498 1.285-1.644 2.123-2.924 2.123h-.481l-.816 2.09-1.293.081 2.522-6.43zm.03 3.14h.302c.661 0 1.17-.367 1.412-1.003.245-.627.032-1.014-.619-1.014h-.309l-.786 2.017zM196.677 34.1c.196.475.443.7.863.7.496 0 .914-.302 1.095-.757.202-.535-.181-.64-.75-.896-.91-.418-1.238-.893-.865-1.832.43-1.116 1.612-1.96 2.79-1.96.79 0 1.289.29 1.525.9l-1.154.853c-.185-.38-.443-.57-.82-.57-.452 0-.861.282-1.025.7-.223.56.294.602.989.924.76.367.964.996.611 1.887-.443 1.122-1.6 1.967-2.85 1.967-.858 0-1.391-.337-1.625-1.027l1.216-.89zM189.016 34.1c.198.475.445.7.865.7.498 0 .914-.302 1.095-.757.202-.535-.181-.64-.75-.896-.91-.418-1.235-.893-.865-1.832.43-1.116 1.612-1.96 2.79-1.96.79 0 1.289.29 1.525.9l-1.154.853c-.185-.38-.443-.57-.82-.57-.452 0-.861.282-1.022.7-.224.56.293.602.988.924.762.367.963.996.611 1.887-.441 1.122-1.599 1.967-2.85 1.967-.856 0-1.388-.337-1.623-1.027l1.21-.89zM32.964 11.308c-1.027-2.576-3.125-3.85-6.405-3.903-5.054.053-10.104 3.703-11.98 8.477-1.587 4.061-.168 6.129 3.744 7.926 2.462 1.116 4.147 1.587 3.259 3.86-.778 1.988-2.586 3.301-4.73 3.301h-.314c-1.789 0-2.837-.935-3.667-2.849l-4.995 3.69c1.003 2.93 3.238 4.365 6.835 4.409 5.354-.049 10.323-3.65 12.215-8.512 1.514-3.86.654-6.57-2.643-8.12-3-1.44-5.246-1.598-4.288-4.013.697-1.802 2.473-3.034 4.43-3.034.043 0 .075.009.113.009.062 0 .126-.009.196-.009 1.585 0 2.684.79 3.482 2.306l4.748-3.538z" opacity=".2"/>
    </g>
    <g opacity=".2">
        <path fill="#004D84" fill-rule="evenodd" d="M4.334 40.597h184.152l13.186 3.161H18.351L4.334 40.597zM12.032 45.342h184.145l13.186 3.161H26.042l-14.01-3.161z" clip-rule="evenodd" opacity=".2"/>
    </g>
    <path fill="#004D84" d="M195.913 33.317c.196.47.445.695.858.695.5 0 .922-.304 1.103-.764.203-.527-.185-.63-.754-.89-.907-.416-1.235-.891-.858-1.835.432-1.118 1.61-1.96 2.79-1.96.782 0 1.282.286 1.521.902l-1.146.853c-.19-.374-.449-.572-.829-.572-.449 0-.854.288-1.026.706-.217.557.304.6.999.922.76.359.96.981.609 1.883-.439 1.129-1.608 1.967-2.848 1.967-.862 0-1.391-.339-1.629-1.02l1.21-.887zM37.733 33.13c-1.832 1.388-3.815 2.066-6.009 2.066-4.264 0-6.053-3.019-4.443-7.126 1.604-4.099 5.566-6.924 10.102-6.924 1.843 0 3.252.476 4.234 1.474l.673-1.713c.676-1.71-.319-2.588-3.052-2.588-2.191 0-4.302.403-6.22 1.2l3.053-4.904c2.284-.436 4.26-.676 5.898-.676 5.284 0 6.852 2.073 5.03 6.73l-5.635 14.41h-4.296l.665-1.95zm-2.995-2.233c2.27 0 3.991-1.116 4.694-2.906.73-1.873-.162-2.986-2.349-2.986-2.345 0-4.09 1.153-4.773 2.904-.737 1.872.162 2.988 2.428 2.988zM55.996 6.974l5.129-.321-11.133 28.426h-5.007L55.996 6.974zM70.015 35.079H65.4l1.172-2.988c-2.356 2.112-4.639 3.142-6.943 3.142-3.875 0-5.09-2.583-3.174-7.482l5.197-13.255 5.127-.317-4.724 12.07c-1.187 3.018-1.208 4.487.98 4.487 2.385 0 4.327-1.663 5.6-4.928l4.435-11.31 5.133-.317-8.19 20.898zM82.383 35.156c-2.74 0-4.581-.873-5.791-2.785-1.289-1.99-1.331-4.693-.13-7.766 1.184-3.019 3.342-5.733 6.208-7.762 2.76-1.95 5.261-2.752 8.156-2.752 2.502 0 4.132.84 5.047 2.596l3.804-9.715 5.133-.321-11.139 28.426h-4.57l1.156-2.948c-2.55 2.114-5.014 3.027-7.874 3.027zm2.42-4.574c3.203 0 6.58-2.429 7.954-5.933 1.361-3.465-.119-5.971-3.29-5.971-3.093 0-6.677 2.662-7.972 5.97-1.372 3.505-.024 5.934 3.307 5.934zM113.572 12.463h-7.35l3.231-5.174h18.119l-2.028 5.174h-6.611l-8.89 22.616h-5.363l8.892-22.616z"/>
    <path fill="#004D84" d="M124.009 17.043c2.754-1.949 5.831-3.031 8.766-3.031 2.935 0 5.195 1.124 6.464 3.073 1.255 1.991 1.334 4.578.188 7.52-1.159 2.95-3.28 5.577-6.098 7.572-2.758 1.95-5.953 3.016-8.85 3.016-2.971 0-5.143-1.032-6.402-3.016-1.237-2.035-1.34-4.664-.207-7.572 1.157-2.942 3.261-5.531 6.139-7.562zm2.281 13.54c3.09 0 6.751-2.672 8.051-5.978 1.352-3.46-.145-5.93-3.391-5.93-3.129 0-6.618 2.43-7.993 5.93-1.34 3.434.125 5.977 3.333 5.977zM146.117 35.28c-5.357 0-6.518-2.749-4.207-8.643l3.022-7.726h-3.162l2.941-4.418h1.957l1.295-3.306 5.93-2.464-2.26 5.768h4.615l-1.731 4.418h-4.618l-3.039 7.766c-1.154 2.959-.867 4.024 2.064 4.024.426 0 1.095 0 1.968-.038l-3.031 4.532c-.711.04-1.321.086-1.744.086zM163.249 33.13c-1.829 1.388-3.819 2.066-6.01 2.066-4.266 0-6.055-3.017-4.445-7.126 1.608-4.099 5.569-6.924 10.11-6.924 1.832 0 3.255.476 4.23 1.474l.669-1.713c.671-1.71-.311-2.588-3.054-2.588-2.19 0-4.298.403-6.215 1.2l3.052-4.904c2.289-.436 4.257-.676 5.899-.676 5.283 0 6.85 2.073 5.029 6.73l-5.625 14.417-4.304-.007.664-1.95zm-2.999-2.233c2.269 0 3.992-1.116 4.701-2.906.73-1.873-.158-2.986-2.351-2.986-2.35 0-4.09 1.153-4.782 2.904-.726 1.872.17 2.988 2.432 2.988zM181.112 6.974l5.123-.321-11.125 28.433h-5.009l11.011-28.112zM180.786 28.719h3.338l-.2 1.15h-2.345l-.494 1.261h1.838l-.463 1.17h-1.833l-.609 1.556h2.628l-.899 1.212h-3.448l2.487-6.35zM185.067 28.72h1.738c1.274 0 1.76.852 1.266 2.137-.514 1.287-1.651 2.127-2.933 2.127h-.486l-.811 2.086-1.295.086 2.521-6.435zm.026 3.14h.307c.662 0 1.165-.372 1.416-1.003.249-.636.028-.999-.626-.999h-.309l-.788 2.002zM188.252 33.317c.196.47.443.695.858.695.5 0 .922-.304 1.103-.764.202-.527-.185-.63-.754-.89-.909-.416-1.235-.891-.86-1.835.434-1.118 1.612-1.96 2.792-1.96.782 0 1.28.286 1.521.902l-1.146.853c-.19-.374-.45-.572-.829-.572-.449 0-.854.288-1.028.706-.216.557.304.6.998.922.761.359.959.981.61 1.883-.441 1.129-1.608 1.967-2.85 1.967-.861 0-1.391-.339-1.627-1.02l1.212-.887zM32.2 10.514c-1.023-2.572-3.127-3.848-6.407-3.896-5.046.048-10.107 3.693-11.974 8.476-1.594 4.064-.173 6.136 3.748 7.918 2.454 1.115 4.14 1.593 3.259 3.87-.784 1.984-2.588 3.3-4.74 3.3-.06 0-.11 0-.161-.009-.051.009-.094.009-.15.009-1.782 0-2.834-.944-3.669-2.851l-4.992 3.682c1.007 2.937 3.24 4.365 6.837 4.42 5.356-.057 10.319-3.654 12.219-8.52 1.512-3.861.658-6.57-2.646-8.118-3-1.437-5.25-1.591-4.302-4.018.703-1.793 2.481-3.02 4.436-3.02h.309c1.585 0 2.682.774 3.485 2.297l4.747-3.54z"/>
    <path fill="#E9DC0B" fill-rule="evenodd" d="M3.561 39.802h184.147l13.188 3.162H17.576L3.56 39.802zM11.252 44.559l184.143.004 13.19 3.153H25.269l-14.017-3.157z" clip-rule="evenodd"/>
    <path fill="#004D84" d="M195.355 32.091h-1.813v.68h1.813v-.68z" opacity=".2"/>
    <path fill="#004D84" d="M194.952 31.675h-1.812v.678h1.812v-.678z"/>
</svg>